<mxfile host="Electron" modified="2023-08-19T16:23:58.811Z" agent="Mozilla/5.0 (Windows NT 10.0; Win64; x64) AppleWebKit/537.36 (KHTML, like Gecko) draw.io/21.6.8 Chrome/114.0.5735.289 Electron/25.5.0 Safari/537.36" etag="SogPLBSszJJq0p_3-WOU" version="21.6.8" type="device">
  <diagram id="iq9X7A5lHrDmtyP4NCfF" name="STUDENT&#39;s COURSE ERD NORMALIZATION_2">
    <mxGraphModel dx="1418" dy="91" grid="1" gridSize="10" guides="1" tooltips="1" connect="1" arrows="1" fold="1" page="1" pageScale="1" pageWidth="1169" pageHeight="827" math="0" shadow="0">
      <root>
        <mxCell id="0" />
        <mxCell id="1" parent="0" />
        <mxCell id="TzZJqTmakssSdBD6UN6_-1" value="" style="group" parent="1" vertex="1" connectable="0">
          <mxGeometry x="10" y="840" width="1210" height="870" as="geometry" />
        </mxCell>
        <mxCell id="TzZJqTmakssSdBD6UN6_-2" value="" style="rounded=0;whiteSpace=wrap;html=1;fillColor=default;sketch=1;curveFitting=1;jiggle=2;fillStyle=auto;strokeColor=default;" parent="TzZJqTmakssSdBD6UN6_-1" vertex="1">
          <mxGeometry width="1210" height="870" as="geometry" />
        </mxCell>
        <mxCell id="TzZJqTmakssSdBD6UN6_-3" value="" style="rounded=1;whiteSpace=wrap;html=1;fillColor=#EBEBEB;sketch=1;curveFitting=1;jiggle=2;fillStyle=hachure;glass=0;" parent="TzZJqTmakssSdBD6UN6_-1" vertex="1">
          <mxGeometry x="10" y="10" width="1190" height="850" as="geometry" />
        </mxCell>
        <mxCell id="TzZJqTmakssSdBD6UN6_-4" value="" style="group;movable=1;resizable=1;rotatable=1;deletable=1;editable=1;locked=0;connectable=1;" parent="TzZJqTmakssSdBD6UN6_-1" vertex="1" connectable="0">
          <mxGeometry x="350" y="110" width="280" height="240" as="geometry" />
        </mxCell>
        <mxCell id="TzZJqTmakssSdBD6UN6_-5" value="" style="line;strokeWidth=1;rotatable=1;dashed=0;labelPosition=right;align=left;verticalAlign=middle;spacingTop=0;spacingLeft=6;points=[];portConstraint=eastwest;strokeColor=#000000;fontFamily=Architects Daughter;fontSize=14;labelBorderColor=default;labelBackgroundColor=none;fontSource=https%3A%2F%2Ffonts.googleapis.com%2Fcss%3Ffamily%3DArchitects%2BDaughter;movable=1;resizable=1;deletable=1;editable=1;locked=0;connectable=1;" parent="TzZJqTmakssSdBD6UN6_-4" vertex="1">
          <mxGeometry y="55" width="280" height="10" as="geometry" />
        </mxCell>
        <mxCell id="TzZJqTmakssSdBD6UN6_-6" value="MsInstructor" style="shape=table;startSize=30;container=1;collapsible=0;childLayout=tableLayout;fixedRows=1;rowLines=0;fontStyle=1;strokeColor=#050505;fontSize=16;fillColor=#C7C7C7;shadow=1;rounded=1;swimlaneFillColor=#F0F0F0;swimlaneLine=1;sketch=1;curveFitting=1;jiggle=2;fillStyle=cross-hatch;fontFamily=Architects Daughter;verticalAlign=middle;labelBorderColor=default;labelBackgroundColor=none;fontSource=https%3A%2F%2Ffonts.googleapis.com%2Fcss%3Ffamily%3DArchitects%2BDaughter;movable=1;resizable=1;rotatable=1;deletable=1;editable=1;locked=0;connectable=1;" parent="TzZJqTmakssSdBD6UN6_-4" vertex="1">
          <mxGeometry width="280" height="240" as="geometry" />
        </mxCell>
        <mxCell id="TzZJqTmakssSdBD6UN6_-7" value="" style="shape=tableRow;horizontal=0;startSize=0;swimlaneHead=0;swimlaneBody=0;top=0;left=0;bottom=0;right=0;collapsible=0;dropTarget=0;fillColor=none;points=[[0,0.5],[1,0.5]];portConstraint=eastwest;strokeColor=inherit;fontSize=14;fontFamily=Architects Daughter;verticalAlign=middle;labelBorderColor=default;labelBackgroundColor=none;fontSource=https%3A%2F%2Ffonts.googleapis.com%2Fcss%3Ffamily%3DArchitects%2BDaughter;movable=1;resizable=1;rotatable=1;deletable=1;editable=1;locked=0;connectable=1;" parent="TzZJqTmakssSdBD6UN6_-6" vertex="1">
          <mxGeometry y="30" width="280" height="30" as="geometry" />
        </mxCell>
        <mxCell id="TzZJqTmakssSdBD6UN6_-8" value="PK" style="shape=partialRectangle;connectable=1;fillColor=none;top=0;left=0;bottom=0;right=0;overflow=hidden;pointerEvents=1;strokeColor=inherit;fontSize=14;fontFamily=Architects Daughter;verticalAlign=middle;labelBorderColor=default;labelBackgroundColor=none;fontStyle=1;fontSource=https%3A%2F%2Ffonts.googleapis.com%2Fcss%3Ffamily%3DArchitects%2BDaughter;movable=1;resizable=1;rotatable=1;deletable=1;editable=1;locked=0;" parent="TzZJqTmakssSdBD6UN6_-7" vertex="1">
          <mxGeometry width="47" height="30" as="geometry">
            <mxRectangle width="47" height="30" as="alternateBounds" />
          </mxGeometry>
        </mxCell>
        <mxCell id="TzZJqTmakssSdBD6UN6_-9" value="Instructor_No" style="shape=partialRectangle;connectable=1;fillColor=none;top=0;left=0;bottom=0;right=0;align=left;spacingLeft=6;overflow=hidden;strokeColor=inherit;fontSize=14;fontFamily=Architects Daughter;verticalAlign=middle;labelBorderColor=default;labelBackgroundColor=none;fontStyle=3;fontSource=https%3A%2F%2Ffonts.googleapis.com%2Fcss%3Ffamily%3DArchitects%2BDaughter;movable=1;resizable=1;rotatable=1;deletable=1;editable=1;locked=0;" parent="TzZJqTmakssSdBD6UN6_-7" vertex="1">
          <mxGeometry x="47" width="233" height="30" as="geometry">
            <mxRectangle width="233" height="30" as="alternateBounds" />
          </mxGeometry>
        </mxCell>
        <mxCell id="TzZJqTmakssSdBD6UN6_-10" value="" style="shape=tableRow;horizontal=0;startSize=0;swimlaneHead=0;swimlaneBody=0;top=0;left=0;bottom=0;right=0;collapsible=0;dropTarget=0;fillColor=none;points=[[0,0.5],[1,0.5]];portConstraint=eastwest;strokeColor=inherit;fontSize=14;fontFamily=Architects Daughter;verticalAlign=middle;labelBorderColor=default;labelBackgroundColor=none;fontSource=https%3A%2F%2Ffonts.googleapis.com%2Fcss%3Ffamily%3DArchitects%2BDaughter;movable=1;resizable=1;rotatable=1;deletable=1;editable=1;locked=0;connectable=1;" parent="TzZJqTmakssSdBD6UN6_-6" vertex="1">
          <mxGeometry y="60" width="280" height="30" as="geometry" />
        </mxCell>
        <mxCell id="TzZJqTmakssSdBD6UN6_-11" value="FK" style="shape=partialRectangle;connectable=1;fillColor=none;top=0;left=0;bottom=0;right=0;overflow=hidden;strokeColor=inherit;fontSize=14;fontFamily=Architects Daughter;verticalAlign=middle;labelBorderColor=default;labelBackgroundColor=none;fontStyle=1;fontSource=https%3A%2F%2Ffonts.googleapis.com%2Fcss%3Ffamily%3DArchitects%2BDaughter;movable=1;resizable=1;rotatable=1;deletable=1;editable=1;locked=0;" parent="TzZJqTmakssSdBD6UN6_-10" vertex="1">
          <mxGeometry width="47" height="30" as="geometry">
            <mxRectangle width="47" height="30" as="alternateBounds" />
          </mxGeometry>
        </mxCell>
        <mxCell id="TzZJqTmakssSdBD6UN6_-12" value="*Faculty_No" style="shape=partialRectangle;connectable=1;fillColor=none;top=0;left=0;bottom=0;right=0;align=left;spacingLeft=6;overflow=hidden;strokeColor=inherit;fontSize=14;fontFamily=Architects Daughter;verticalAlign=middle;labelBorderColor=default;labelBackgroundColor=none;fontStyle=3;fontSource=https%3A%2F%2Ffonts.googleapis.com%2Fcss%3Ffamily%3DArchitects%2BDaughter;movable=1;resizable=1;rotatable=1;deletable=1;editable=1;locked=0;" parent="TzZJqTmakssSdBD6UN6_-10" vertex="1">
          <mxGeometry x="47" width="233" height="30" as="geometry">
            <mxRectangle width="233" height="30" as="alternateBounds" />
          </mxGeometry>
        </mxCell>
        <mxCell id="TzZJqTmakssSdBD6UN6_-13" value="" style="shape=tableRow;horizontal=0;startSize=0;swimlaneHead=0;swimlaneBody=0;top=0;left=0;bottom=0;right=0;collapsible=0;dropTarget=0;fillColor=none;points=[[0,0.5],[1,0.5]];portConstraint=eastwest;strokeColor=inherit;fontSize=14;fontFamily=Architects Daughter;verticalAlign=middle;labelBorderColor=default;labelBackgroundColor=none;fontSource=https%3A%2F%2Ffonts.googleapis.com%2Fcss%3Ffamily%3DArchitects%2BDaughter;movable=1;resizable=1;rotatable=1;deletable=1;editable=1;locked=0;connectable=1;" parent="TzZJqTmakssSdBD6UN6_-6" vertex="1">
          <mxGeometry y="90" width="280" height="30" as="geometry" />
        </mxCell>
        <mxCell id="TzZJqTmakssSdBD6UN6_-14" value="" style="shape=partialRectangle;connectable=1;fillColor=none;top=0;left=0;bottom=0;right=0;overflow=hidden;strokeColor=inherit;fontSize=14;fontFamily=Architects Daughter;verticalAlign=middle;labelBorderColor=default;labelBackgroundColor=none;fontSource=https%3A%2F%2Ffonts.googleapis.com%2Fcss%3Ffamily%3DArchitects%2BDaughter;movable=1;resizable=1;rotatable=1;deletable=1;editable=1;locked=0;" parent="TzZJqTmakssSdBD6UN6_-13" vertex="1">
          <mxGeometry width="47" height="30" as="geometry">
            <mxRectangle width="47" height="30" as="alternateBounds" />
          </mxGeometry>
        </mxCell>
        <mxCell id="TzZJqTmakssSdBD6UN6_-15" value="Instructor_Name" style="shape=partialRectangle;connectable=1;fillColor=none;top=0;left=0;bottom=0;right=0;align=left;spacingLeft=6;overflow=hidden;strokeColor=inherit;fontSize=14;fontFamily=Architects Daughter;verticalAlign=middle;labelBorderColor=default;labelBackgroundColor=none;fontSource=https%3A%2F%2Ffonts.googleapis.com%2Fcss%3Ffamily%3DArchitects%2BDaughter;movable=1;resizable=1;rotatable=1;deletable=1;editable=1;locked=0;" parent="TzZJqTmakssSdBD6UN6_-13" vertex="1">
          <mxGeometry x="47" width="233" height="30" as="geometry">
            <mxRectangle width="233" height="30" as="alternateBounds" />
          </mxGeometry>
        </mxCell>
        <mxCell id="TzZJqTmakssSdBD6UN6_-16" value="" style="shape=tableRow;horizontal=0;startSize=0;swimlaneHead=0;swimlaneBody=0;top=0;left=0;bottom=0;right=0;collapsible=0;dropTarget=0;fillColor=none;points=[[0,0.5],[1,0.5]];portConstraint=eastwest;strokeColor=inherit;fontSize=14;fontFamily=Architects Daughter;verticalAlign=middle;labelBorderColor=default;labelBackgroundColor=none;fontSource=https%3A%2F%2Ffonts.googleapis.com%2Fcss%3Ffamily%3DArchitects%2BDaughter;movable=1;resizable=1;rotatable=1;deletable=1;editable=1;locked=0;connectable=1;" parent="TzZJqTmakssSdBD6UN6_-6" vertex="1">
          <mxGeometry y="120" width="280" height="30" as="geometry" />
        </mxCell>
        <mxCell id="TzZJqTmakssSdBD6UN6_-17" value="" style="shape=partialRectangle;connectable=1;fillColor=none;top=0;left=0;bottom=0;right=0;overflow=hidden;pointerEvents=1;strokeColor=inherit;fontSize=14;fontFamily=Architects Daughter;verticalAlign=middle;labelBorderColor=default;labelBackgroundColor=none;fontSource=https%3A%2F%2Ffonts.googleapis.com%2Fcss%3Ffamily%3DArchitects%2BDaughter;movable=1;resizable=1;rotatable=1;deletable=1;editable=1;locked=0;" parent="TzZJqTmakssSdBD6UN6_-16" vertex="1">
          <mxGeometry width="47" height="30" as="geometry">
            <mxRectangle width="47" height="30" as="alternateBounds" />
          </mxGeometry>
        </mxCell>
        <mxCell id="TzZJqTmakssSdBD6UN6_-18" value="*Instructor_Gender" style="shape=partialRectangle;connectable=1;fillColor=none;top=0;left=0;bottom=0;right=0;align=left;spacingLeft=6;overflow=hidden;strokeColor=inherit;fontSize=14;fontFamily=Architects Daughter;verticalAlign=middle;labelBorderColor=default;labelBackgroundColor=none;fontSource=https%3A%2F%2Ffonts.googleapis.com%2Fcss%3Ffamily%3DArchitects%2BDaughter;movable=1;resizable=1;rotatable=1;deletable=1;editable=1;locked=0;" parent="TzZJqTmakssSdBD6UN6_-16" vertex="1">
          <mxGeometry x="47" width="233" height="30" as="geometry">
            <mxRectangle width="233" height="30" as="alternateBounds" />
          </mxGeometry>
        </mxCell>
        <mxCell id="TzZJqTmakssSdBD6UN6_-19" value="" style="shape=tableRow;horizontal=0;startSize=0;swimlaneHead=0;swimlaneBody=0;top=0;left=0;bottom=0;right=0;collapsible=0;dropTarget=0;fillColor=none;points=[[0,0.5],[1,0.5]];portConstraint=eastwest;strokeColor=inherit;fontSize=14;fontFamily=Architects Daughter;verticalAlign=middle;labelBorderColor=default;labelBackgroundColor=none;fontSource=https%3A%2F%2Ffonts.googleapis.com%2Fcss%3Ffamily%3DArchitects%2BDaughter;movable=1;resizable=1;rotatable=1;deletable=1;editable=1;locked=0;connectable=1;" parent="TzZJqTmakssSdBD6UN6_-6" vertex="1">
          <mxGeometry y="150" width="280" height="30" as="geometry" />
        </mxCell>
        <mxCell id="TzZJqTmakssSdBD6UN6_-20" value="" style="shape=partialRectangle;connectable=1;fillColor=none;top=0;left=0;bottom=0;right=0;overflow=hidden;strokeColor=inherit;fontSize=14;fontFamily=Architects Daughter;verticalAlign=middle;labelBorderColor=default;labelBackgroundColor=none;fontSource=https%3A%2F%2Ffonts.googleapis.com%2Fcss%3Ffamily%3DArchitects%2BDaughter;movable=1;resizable=1;rotatable=1;deletable=1;editable=1;locked=0;" parent="TzZJqTmakssSdBD6UN6_-19" vertex="1">
          <mxGeometry width="47" height="30" as="geometry">
            <mxRectangle width="47" height="30" as="alternateBounds" />
          </mxGeometry>
        </mxCell>
        <mxCell id="TzZJqTmakssSdBD6UN6_-21" value="*Instructior_DOB" style="shape=partialRectangle;connectable=1;fillColor=none;top=0;left=0;bottom=0;right=0;align=left;spacingLeft=6;overflow=hidden;strokeColor=inherit;fontSize=14;fontFamily=Architects Daughter;verticalAlign=middle;labelBorderColor=default;labelBackgroundColor=none;fontSource=https%3A%2F%2Ffonts.googleapis.com%2Fcss%3Ffamily%3DArchitects%2BDaughter;movable=1;resizable=1;rotatable=1;deletable=1;editable=1;locked=0;" parent="TzZJqTmakssSdBD6UN6_-19" vertex="1">
          <mxGeometry x="47" width="233" height="30" as="geometry">
            <mxRectangle width="233" height="30" as="alternateBounds" />
          </mxGeometry>
        </mxCell>
        <mxCell id="TzZJqTmakssSdBD6UN6_-22" value="" style="shape=tableRow;horizontal=0;startSize=0;swimlaneHead=0;swimlaneBody=0;top=0;left=0;bottom=0;right=0;collapsible=0;dropTarget=0;fillColor=none;points=[[0,0.5],[1,0.5]];portConstraint=eastwest;strokeColor=inherit;fontSize=14;fontFamily=Architects Daughter;verticalAlign=middle;labelBorderColor=default;labelBackgroundColor=none;fontSource=https%3A%2F%2Ffonts.googleapis.com%2Fcss%3Ffamily%3DArchitects%2BDaughter;movable=1;resizable=1;rotatable=1;deletable=1;editable=1;locked=0;connectable=1;" parent="TzZJqTmakssSdBD6UN6_-6" vertex="1">
          <mxGeometry y="180" width="280" height="30" as="geometry" />
        </mxCell>
        <mxCell id="TzZJqTmakssSdBD6UN6_-23" value="" style="shape=partialRectangle;connectable=1;fillColor=none;top=0;left=0;bottom=0;right=0;overflow=hidden;strokeColor=inherit;fontSize=14;fontFamily=Architects Daughter;verticalAlign=middle;labelBorderColor=default;labelBackgroundColor=none;fontSource=https%3A%2F%2Ffonts.googleapis.com%2Fcss%3Ffamily%3DArchitects%2BDaughter;movable=1;resizable=1;rotatable=1;deletable=1;editable=1;locked=0;" parent="TzZJqTmakssSdBD6UN6_-22" vertex="1">
          <mxGeometry width="47" height="30" as="geometry">
            <mxRectangle width="47" height="30" as="alternateBounds" />
          </mxGeometry>
        </mxCell>
        <mxCell id="TzZJqTmakssSdBD6UN6_-24" value="Instructor_Location" style="shape=partialRectangle;connectable=1;fillColor=none;top=0;left=0;bottom=0;right=0;align=left;spacingLeft=6;overflow=hidden;strokeColor=inherit;fontSize=14;fontFamily=Architects Daughter;verticalAlign=middle;labelBorderColor=default;labelBackgroundColor=none;fontSource=https%3A%2F%2Ffonts.googleapis.com%2Fcss%3Ffamily%3DArchitects%2BDaughter;movable=1;resizable=1;rotatable=1;deletable=1;editable=1;locked=0;" parent="TzZJqTmakssSdBD6UN6_-22" vertex="1">
          <mxGeometry x="47" width="233" height="30" as="geometry">
            <mxRectangle width="233" height="30" as="alternateBounds" />
          </mxGeometry>
        </mxCell>
        <mxCell id="TzZJqTmakssSdBD6UN6_-25" value="" style="shape=tableRow;horizontal=0;startSize=0;swimlaneHead=0;swimlaneBody=0;top=0;left=0;bottom=0;right=0;collapsible=0;dropTarget=0;fillColor=none;points=[[0,0.5],[1,0.5]];portConstraint=eastwest;strokeColor=inherit;fontSize=14;fontFamily=Architects Daughter;verticalAlign=middle;labelBorderColor=default;labelBackgroundColor=none;fontSource=https%3A%2F%2Ffonts.googleapis.com%2Fcss%3Ffamily%3DArchitects%2BDaughter;movable=1;resizable=1;rotatable=1;deletable=1;editable=1;locked=0;connectable=1;" parent="TzZJqTmakssSdBD6UN6_-6" vertex="1">
          <mxGeometry y="210" width="280" height="30" as="geometry" />
        </mxCell>
        <mxCell id="TzZJqTmakssSdBD6UN6_-26" value="" style="shape=partialRectangle;connectable=1;fillColor=none;top=0;left=0;bottom=0;right=0;overflow=hidden;strokeColor=inherit;fontSize=14;fontFamily=Architects Daughter;verticalAlign=middle;labelBorderColor=default;labelBackgroundColor=none;fontSource=https%3A%2F%2Ffonts.googleapis.com%2Fcss%3Ffamily%3DArchitects%2BDaughter;movable=1;resizable=1;rotatable=1;deletable=1;editable=1;locked=0;" parent="TzZJqTmakssSdBD6UN6_-25" vertex="1">
          <mxGeometry width="47" height="30" as="geometry">
            <mxRectangle width="47" height="30" as="alternateBounds" />
          </mxGeometry>
        </mxCell>
        <mxCell id="TzZJqTmakssSdBD6UN6_-27" value="*Instructor_Description" style="shape=partialRectangle;connectable=1;fillColor=none;top=0;left=0;bottom=0;right=0;align=left;spacingLeft=6;overflow=hidden;strokeColor=inherit;fontSize=14;fontFamily=Architects Daughter;verticalAlign=middle;labelBorderColor=default;labelBackgroundColor=none;fontSource=https%3A%2F%2Ffonts.googleapis.com%2Fcss%3Ffamily%3DArchitects%2BDaughter;movable=1;resizable=1;rotatable=1;deletable=1;editable=1;locked=0;" parent="TzZJqTmakssSdBD6UN6_-25" vertex="1">
          <mxGeometry x="47" width="233" height="30" as="geometry">
            <mxRectangle width="233" height="30" as="alternateBounds" />
          </mxGeometry>
        </mxCell>
        <mxCell id="TzZJqTmakssSdBD6UN6_-28" style="edgeStyle=orthogonalEdgeStyle;rounded=1;orthogonalLoop=1;jettySize=auto;html=1;entryX=0;entryY=0.5;entryDx=0;entryDy=0;exitX=0;exitY=0.5;exitDx=0;exitDy=0;shadow=1;jumpStyle=line;jumpSize=11;startSize=11;endSize=11;endArrow=ERzeroToMany;endFill=0;startArrow=ERone;startFill=0;movable=1;resizable=1;rotatable=1;deletable=1;editable=1;locked=0;connectable=1;" parent="TzZJqTmakssSdBD6UN6_-1" source="TzZJqTmakssSdBD6UN6_-7" target="TzZJqTmakssSdBD6UN6_-148" edge="1">
          <mxGeometry relative="1" as="geometry">
            <Array as="points">
              <mxPoint x="270" y="155" />
              <mxPoint x="270" y="400" />
              <mxPoint x="410" y="400" />
              <mxPoint x="410" y="595" />
            </Array>
            <mxPoint x="490" y="565" as="targetPoint" />
          </mxGeometry>
        </mxCell>
        <mxCell id="TzZJqTmakssSdBD6UN6_-29" style="edgeStyle=orthogonalEdgeStyle;rounded=1;orthogonalLoop=1;jettySize=auto;html=1;entryX=0;entryY=0.5;entryDx=0;entryDy=0;endArrow=ERzeroToMany;shadow=1;startSize=11;endSize=11;endFill=0;jumpStyle=line;jumpSize=11;exitX=1;exitY=0.5;exitDx=0;exitDy=0;startArrow=ERone;startFill=0;movable=1;resizable=1;rotatable=1;deletable=1;editable=1;locked=0;connectable=1;" parent="TzZJqTmakssSdBD6UN6_-1" source="TzZJqTmakssSdBD6UN6_-72" target="TzZJqTmakssSdBD6UN6_-10" edge="1">
          <mxGeometry relative="1" as="geometry">
            <Array as="points">
              <mxPoint x="1160" y="675" />
              <mxPoint x="1160" y="800" />
              <mxPoint x="70" y="800" />
              <mxPoint x="70" y="330" />
              <mxPoint x="310" y="330" />
              <mxPoint x="310" y="185" />
            </Array>
          </mxGeometry>
        </mxCell>
        <mxCell id="TzZJqTmakssSdBD6UN6_-30" value="" style="group;movable=1;resizable=1;rotatable=1;deletable=1;editable=1;locked=0;connectable=1;" parent="TzZJqTmakssSdBD6UN6_-1" vertex="1" connectable="0">
          <mxGeometry x="880" y="110" width="280" height="240" as="geometry" />
        </mxCell>
        <mxCell id="TzZJqTmakssSdBD6UN6_-31" value="TrStudentGradeReport" style="shape=table;startSize=30;container=1;collapsible=0;childLayout=tableLayout;fixedRows=1;rowLines=0;fontStyle=1;strokeColor=#050505;fontSize=16;fillColor=#C7C7C7;shadow=1;rounded=1;swimlaneFillColor=#F0F0F0;swimlaneLine=1;sketch=1;curveFitting=1;jiggle=2;fillStyle=cross-hatch;fontFamily=Architects Daughter;verticalAlign=middle;labelBorderColor=default;labelBackgroundColor=none;fontSource=https%3A%2F%2Ffonts.googleapis.com%2Fcss%3Ffamily%3DArchitects%2BDaughter;movable=1;resizable=1;rotatable=1;deletable=1;editable=1;locked=0;connectable=1;" parent="TzZJqTmakssSdBD6UN6_-30" vertex="1">
          <mxGeometry width="280" height="240" as="geometry" />
        </mxCell>
        <mxCell id="TzZJqTmakssSdBD6UN6_-32" value="" style="shape=tableRow;horizontal=0;startSize=0;swimlaneHead=0;swimlaneBody=0;top=0;left=0;bottom=0;right=0;collapsible=0;dropTarget=0;fillColor=none;points=[[0,0.5],[1,0.5]];portConstraint=eastwest;strokeColor=inherit;fontSize=14;fontFamily=Architects Daughter;verticalAlign=middle;labelBorderColor=default;labelBackgroundColor=none;fontSource=https%3A%2F%2Ffonts.googleapis.com%2Fcss%3Ffamily%3DArchitects%2BDaughter;movable=1;resizable=1;rotatable=1;deletable=1;editable=1;locked=0;connectable=1;" parent="TzZJqTmakssSdBD6UN6_-31" vertex="1">
          <mxGeometry y="30" width="280" height="30" as="geometry" />
        </mxCell>
        <mxCell id="TzZJqTmakssSdBD6UN6_-33" value="PK" style="shape=partialRectangle;connectable=1;fillColor=none;top=0;left=0;bottom=0;right=0;overflow=hidden;pointerEvents=1;strokeColor=inherit;fontSize=14;fontFamily=Architects Daughter;verticalAlign=middle;labelBorderColor=default;labelBackgroundColor=none;fontStyle=1;fontSource=https%3A%2F%2Ffonts.googleapis.com%2Fcss%3Ffamily%3DArchitects%2BDaughter;movable=1;resizable=1;rotatable=1;deletable=1;editable=1;locked=0;" parent="TzZJqTmakssSdBD6UN6_-32" vertex="1">
          <mxGeometry width="47" height="30" as="geometry">
            <mxRectangle width="47" height="30" as="alternateBounds" />
          </mxGeometry>
        </mxCell>
        <mxCell id="TzZJqTmakssSdBD6UN6_-34" value="Student_No" style="shape=partialRectangle;connectable=1;fillColor=none;top=0;left=0;bottom=0;right=0;align=left;spacingLeft=6;overflow=hidden;strokeColor=inherit;fontSize=14;fontFamily=Architects Daughter;verticalAlign=middle;labelBorderColor=default;labelBackgroundColor=none;fontStyle=3;fontSource=https%3A%2F%2Ffonts.googleapis.com%2Fcss%3Ffamily%3DArchitects%2BDaughter;movable=1;resizable=1;rotatable=1;deletable=1;editable=1;locked=0;" parent="TzZJqTmakssSdBD6UN6_-32" vertex="1">
          <mxGeometry x="47" width="233" height="30" as="geometry">
            <mxRectangle width="233" height="30" as="alternateBounds" />
          </mxGeometry>
        </mxCell>
        <mxCell id="TzZJqTmakssSdBD6UN6_-35" value="" style="shape=tableRow;horizontal=0;startSize=0;swimlaneHead=0;swimlaneBody=0;top=0;left=0;bottom=0;right=0;collapsible=0;dropTarget=0;fillColor=none;points=[[0,0.5],[1,0.5]];portConstraint=eastwest;strokeColor=inherit;fontSize=14;fontFamily=Architects Daughter;verticalAlign=middle;labelBorderColor=default;labelBackgroundColor=none;fontSource=https%3A%2F%2Ffonts.googleapis.com%2Fcss%3Ffamily%3DArchitects%2BDaughter;movable=1;resizable=1;rotatable=1;deletable=1;editable=1;locked=0;connectable=1;" parent="TzZJqTmakssSdBD6UN6_-31" vertex="1">
          <mxGeometry y="60" width="280" height="30" as="geometry" />
        </mxCell>
        <mxCell id="TzZJqTmakssSdBD6UN6_-36" value="FK" style="shape=partialRectangle;connectable=1;fillColor=none;top=0;left=0;bottom=0;right=0;overflow=hidden;strokeColor=inherit;fontSize=14;fontFamily=Architects Daughter;verticalAlign=middle;labelBorderColor=default;labelBackgroundColor=none;fontStyle=1;fontSource=https%3A%2F%2Ffonts.googleapis.com%2Fcss%3Ffamily%3DArchitects%2BDaughter;movable=1;resizable=1;rotatable=1;deletable=1;editable=1;locked=0;" parent="TzZJqTmakssSdBD6UN6_-35" vertex="1">
          <mxGeometry width="47" height="30" as="geometry">
            <mxRectangle width="47" height="30" as="alternateBounds" />
          </mxGeometry>
        </mxCell>
        <mxCell id="TzZJqTmakssSdBD6UN6_-37" value="*Faculty_No" style="shape=partialRectangle;connectable=1;fillColor=none;top=0;left=0;bottom=0;right=0;align=left;spacingLeft=6;overflow=hidden;strokeColor=inherit;fontSize=14;fontFamily=Architects Daughter;verticalAlign=middle;labelBorderColor=default;labelBackgroundColor=none;fontStyle=3;fontSource=https%3A%2F%2Ffonts.googleapis.com%2Fcss%3Ffamily%3DArchitects%2BDaughter;movable=1;resizable=1;rotatable=1;deletable=1;editable=1;locked=0;" parent="TzZJqTmakssSdBD6UN6_-35" vertex="1">
          <mxGeometry x="47" width="233" height="30" as="geometry">
            <mxRectangle width="233" height="30" as="alternateBounds" />
          </mxGeometry>
        </mxCell>
        <mxCell id="TzZJqTmakssSdBD6UN6_-38" value="" style="shape=tableRow;horizontal=0;startSize=0;swimlaneHead=0;swimlaneBody=0;top=0;left=0;bottom=0;right=0;collapsible=0;dropTarget=0;fillColor=none;points=[[0,0.5],[1,0.5]];portConstraint=eastwest;strokeColor=inherit;fontSize=14;fontFamily=Architects Daughter;verticalAlign=middle;labelBorderColor=default;labelBackgroundColor=none;fontSource=https%3A%2F%2Ffonts.googleapis.com%2Fcss%3Ffamily%3DArchitects%2BDaughter;movable=1;resizable=1;rotatable=1;deletable=1;editable=1;locked=0;connectable=1;" parent="TzZJqTmakssSdBD6UN6_-31" vertex="1">
          <mxGeometry y="90" width="280" height="30" as="geometry" />
        </mxCell>
        <mxCell id="TzZJqTmakssSdBD6UN6_-39" value="FK" style="shape=partialRectangle;connectable=1;fillColor=none;top=0;left=0;bottom=0;right=0;overflow=hidden;strokeColor=inherit;fontSize=14;fontFamily=Architects Daughter;verticalAlign=middle;labelBorderColor=default;labelBackgroundColor=none;fontStyle=1;fontSource=https%3A%2F%2Ffonts.googleapis.com%2Fcss%3Ffamily%3DArchitects%2BDaughter;movable=1;resizable=1;rotatable=1;deletable=1;editable=1;locked=0;" parent="TzZJqTmakssSdBD6UN6_-38" vertex="1">
          <mxGeometry width="47" height="30" as="geometry">
            <mxRectangle width="47" height="30" as="alternateBounds" />
          </mxGeometry>
        </mxCell>
        <mxCell id="TzZJqTmakssSdBD6UN6_-40" value="*Major_No" style="shape=partialRectangle;connectable=1;fillColor=none;top=0;left=0;bottom=0;right=0;align=left;spacingLeft=6;overflow=hidden;strokeColor=inherit;fontSize=14;fontFamily=Architects Daughter;verticalAlign=middle;labelBorderColor=default;labelBackgroundColor=none;fontStyle=3;fontSource=https%3A%2F%2Ffonts.googleapis.com%2Fcss%3Ffamily%3DArchitects%2BDaughter;movable=1;resizable=1;rotatable=1;deletable=1;editable=1;locked=0;" parent="TzZJqTmakssSdBD6UN6_-38" vertex="1">
          <mxGeometry x="47" width="233" height="30" as="geometry">
            <mxRectangle width="233" height="30" as="alternateBounds" />
          </mxGeometry>
        </mxCell>
        <mxCell id="TzZJqTmakssSdBD6UN6_-41" value="" style="shape=tableRow;horizontal=0;startSize=0;swimlaneHead=0;swimlaneBody=0;top=0;left=0;bottom=0;right=0;collapsible=0;dropTarget=0;fillColor=none;points=[[0,0.5],[1,0.5]];portConstraint=eastwest;strokeColor=inherit;fontSize=14;fontFamily=Architects Daughter;verticalAlign=middle;labelBorderColor=default;labelBackgroundColor=none;fontSource=https%3A%2F%2Ffonts.googleapis.com%2Fcss%3Ffamily%3DArchitects%2BDaughter;movable=1;resizable=1;rotatable=1;deletable=1;editable=1;locked=0;connectable=1;" parent="TzZJqTmakssSdBD6UN6_-31" vertex="1">
          <mxGeometry y="120" width="280" height="30" as="geometry" />
        </mxCell>
        <mxCell id="TzZJqTmakssSdBD6UN6_-42" value="" style="shape=partialRectangle;connectable=1;fillColor=none;top=0;left=0;bottom=0;right=0;overflow=hidden;strokeColor=inherit;fontSize=14;fontFamily=Architects Daughter;verticalAlign=middle;labelBorderColor=default;labelBackgroundColor=none;fontSource=https%3A%2F%2Ffonts.googleapis.com%2Fcss%3Ffamily%3DArchitects%2BDaughter;movable=1;resizable=1;rotatable=1;deletable=1;editable=1;locked=0;" parent="TzZJqTmakssSdBD6UN6_-41" vertex="1">
          <mxGeometry width="47" height="30" as="geometry">
            <mxRectangle width="47" height="30" as="alternateBounds" />
          </mxGeometry>
        </mxCell>
        <mxCell id="TzZJqTmakssSdBD6UN6_-43" value="Student_Name" style="shape=partialRectangle;connectable=1;fillColor=none;top=0;left=0;bottom=0;right=0;align=left;spacingLeft=6;overflow=hidden;strokeColor=inherit;fontSize=14;fontFamily=Architects Daughter;verticalAlign=middle;labelBorderColor=default;labelBackgroundColor=none;fontSource=https%3A%2F%2Ffonts.googleapis.com%2Fcss%3Ffamily%3DArchitects%2BDaughter;movable=1;resizable=1;rotatable=1;deletable=1;editable=1;locked=0;" parent="TzZJqTmakssSdBD6UN6_-41" vertex="1">
          <mxGeometry x="47" width="233" height="30" as="geometry">
            <mxRectangle width="233" height="30" as="alternateBounds" />
          </mxGeometry>
        </mxCell>
        <mxCell id="TzZJqTmakssSdBD6UN6_-44" value="" style="shape=tableRow;horizontal=0;startSize=0;swimlaneHead=0;swimlaneBody=0;top=0;left=0;bottom=0;right=0;collapsible=0;dropTarget=0;fillColor=none;points=[[0,0.5],[1,0.5]];portConstraint=eastwest;strokeColor=inherit;fontSize=14;fontFamily=Architects Daughter;verticalAlign=middle;labelBorderColor=default;labelBackgroundColor=none;fontSource=https%3A%2F%2Ffonts.googleapis.com%2Fcss%3Ffamily%3DArchitects%2BDaughter;movable=1;resizable=1;rotatable=1;deletable=1;editable=1;locked=0;connectable=1;" parent="TzZJqTmakssSdBD6UN6_-31" vertex="1">
          <mxGeometry y="150" width="280" height="30" as="geometry" />
        </mxCell>
        <mxCell id="TzZJqTmakssSdBD6UN6_-45" value="" style="shape=partialRectangle;connectable=1;fillColor=none;top=0;left=0;bottom=0;right=0;overflow=hidden;strokeColor=inherit;fontSize=14;fontFamily=Architects Daughter;verticalAlign=middle;labelBorderColor=default;labelBackgroundColor=none;fontSource=https%3A%2F%2Ffonts.googleapis.com%2Fcss%3Ffamily%3DArchitects%2BDaughter;movable=1;resizable=1;rotatable=1;deletable=1;editable=1;locked=0;" parent="TzZJqTmakssSdBD6UN6_-44" vertex="1">
          <mxGeometry width="47" height="30" as="geometry">
            <mxRectangle width="47" height="30" as="alternateBounds" />
          </mxGeometry>
        </mxCell>
        <mxCell id="TzZJqTmakssSdBD6UN6_-46" value="*Student_Gender" style="shape=partialRectangle;connectable=1;fillColor=none;top=0;left=0;bottom=0;right=0;align=left;spacingLeft=6;overflow=hidden;strokeColor=inherit;fontSize=14;fontFamily=Architects Daughter;verticalAlign=middle;labelBorderColor=default;labelBackgroundColor=none;fontSource=https%3A%2F%2Ffonts.googleapis.com%2Fcss%3Ffamily%3DArchitects%2BDaughter;movable=1;resizable=1;rotatable=1;deletable=1;editable=1;locked=0;" parent="TzZJqTmakssSdBD6UN6_-44" vertex="1">
          <mxGeometry x="47" width="233" height="30" as="geometry">
            <mxRectangle width="233" height="30" as="alternateBounds" />
          </mxGeometry>
        </mxCell>
        <mxCell id="TzZJqTmakssSdBD6UN6_-47" value="" style="shape=tableRow;horizontal=0;startSize=0;swimlaneHead=0;swimlaneBody=0;top=0;left=0;bottom=0;right=0;collapsible=0;dropTarget=0;fillColor=none;points=[[0,0.5],[1,0.5]];portConstraint=eastwest;strokeColor=inherit;fontSize=14;fontFamily=Architects Daughter;verticalAlign=middle;labelBorderColor=default;labelBackgroundColor=none;fontSource=https%3A%2F%2Ffonts.googleapis.com%2Fcss%3Ffamily%3DArchitects%2BDaughter;movable=1;resizable=1;rotatable=1;deletable=1;editable=1;locked=0;connectable=1;" parent="TzZJqTmakssSdBD6UN6_-31" vertex="1">
          <mxGeometry y="180" width="280" height="30" as="geometry" />
        </mxCell>
        <mxCell id="TzZJqTmakssSdBD6UN6_-48" value="" style="shape=partialRectangle;connectable=1;fillColor=none;top=0;left=0;bottom=0;right=0;overflow=hidden;pointerEvents=1;strokeColor=inherit;fontSize=14;fontFamily=Architects Daughter;verticalAlign=middle;labelBorderColor=default;labelBackgroundColor=none;fontSource=https%3A%2F%2Ffonts.googleapis.com%2Fcss%3Ffamily%3DArchitects%2BDaughter;movable=1;resizable=1;rotatable=1;deletable=1;editable=1;locked=0;" parent="TzZJqTmakssSdBD6UN6_-47" vertex="1">
          <mxGeometry width="47" height="30" as="geometry">
            <mxRectangle width="47" height="30" as="alternateBounds" />
          </mxGeometry>
        </mxCell>
        <mxCell id="TzZJqTmakssSdBD6UN6_-49" value="*Student_DOB" style="shape=partialRectangle;connectable=1;fillColor=none;top=0;left=0;bottom=0;right=0;align=left;spacingLeft=6;overflow=hidden;strokeColor=inherit;fontSize=14;fontFamily=Architects Daughter;verticalAlign=middle;labelBorderColor=default;labelBackgroundColor=none;fontSource=https%3A%2F%2Ffonts.googleapis.com%2Fcss%3Ffamily%3DArchitects%2BDaughter;movable=1;resizable=1;rotatable=1;deletable=1;editable=1;locked=0;" parent="TzZJqTmakssSdBD6UN6_-47" vertex="1">
          <mxGeometry x="47" width="233" height="30" as="geometry">
            <mxRectangle width="233" height="30" as="alternateBounds" />
          </mxGeometry>
        </mxCell>
        <mxCell id="TzZJqTmakssSdBD6UN6_-50" value="" style="shape=tableRow;horizontal=0;startSize=0;swimlaneHead=0;swimlaneBody=0;top=0;left=0;bottom=0;right=0;collapsible=0;dropTarget=0;fillColor=none;points=[[0,0.5],[1,0.5]];portConstraint=eastwest;strokeColor=inherit;fontSize=14;fontFamily=Architects Daughter;verticalAlign=middle;labelBorderColor=default;labelBackgroundColor=none;fontSource=https%3A%2F%2Ffonts.googleapis.com%2Fcss%3Ffamily%3DArchitects%2BDaughter;movable=1;resizable=1;rotatable=1;deletable=1;editable=1;locked=0;connectable=1;" parent="TzZJqTmakssSdBD6UN6_-31" vertex="1">
          <mxGeometry y="210" width="280" height="30" as="geometry" />
        </mxCell>
        <mxCell id="TzZJqTmakssSdBD6UN6_-51" value="" style="shape=partialRectangle;connectable=1;fillColor=none;top=0;left=0;bottom=0;right=0;overflow=hidden;strokeColor=inherit;fontSize=14;fontFamily=Architects Daughter;verticalAlign=middle;labelBorderColor=default;labelBackgroundColor=none;fontSource=https%3A%2F%2Ffonts.googleapis.com%2Fcss%3Ffamily%3DArchitects%2BDaughter;movable=1;resizable=1;rotatable=1;deletable=1;editable=1;locked=0;" parent="TzZJqTmakssSdBD6UN6_-50" vertex="1">
          <mxGeometry width="47" height="30" as="geometry">
            <mxRectangle width="47" height="30" as="alternateBounds" />
          </mxGeometry>
        </mxCell>
        <mxCell id="TzZJqTmakssSdBD6UN6_-52" value="*Student_Description" style="shape=partialRectangle;connectable=1;fillColor=none;top=0;left=0;bottom=0;right=0;align=left;spacingLeft=6;overflow=hidden;strokeColor=inherit;fontSize=14;fontFamily=Architects Daughter;verticalAlign=middle;labelBorderColor=default;labelBackgroundColor=none;fontSource=https%3A%2F%2Ffonts.googleapis.com%2Fcss%3Ffamily%3DArchitects%2BDaughter;movable=1;resizable=1;rotatable=1;deletable=1;editable=1;locked=0;" parent="TzZJqTmakssSdBD6UN6_-50" vertex="1">
          <mxGeometry x="47" width="233" height="30" as="geometry">
            <mxRectangle width="233" height="30" as="alternateBounds" />
          </mxGeometry>
        </mxCell>
        <mxCell id="TzZJqTmakssSdBD6UN6_-53" value="" style="line;strokeWidth=1;rotatable=1;dashed=0;labelPosition=right;align=left;verticalAlign=middle;spacingTop=0;spacingLeft=6;points=[];portConstraint=eastwest;strokeColor=#000000;fontFamily=Architects Daughter;fontSize=14;labelBorderColor=default;labelBackgroundColor=none;fontSource=https%3A%2F%2Ffonts.googleapis.com%2Fcss%3Ffamily%3DArchitects%2BDaughter;movable=1;resizable=1;deletable=1;editable=1;locked=0;connectable=1;" parent="TzZJqTmakssSdBD6UN6_-30" vertex="1">
          <mxGeometry y="55" width="280" height="10" as="geometry" />
        </mxCell>
        <mxCell id="TzZJqTmakssSdBD6UN6_-54" value="" style="group;movable=1;resizable=1;rotatable=1;deletable=1;editable=1;locked=0;connectable=1;" parent="TzZJqTmakssSdBD6UN6_-1" vertex="1" connectable="0">
          <mxGeometry x="880" y="420" width="280" height="150" as="geometry" />
        </mxCell>
        <mxCell id="TzZJqTmakssSdBD6UN6_-55" value="**MsMajor" style="shape=table;startSize=30;container=1;collapsible=0;childLayout=tableLayout;fixedRows=1;rowLines=0;fontStyle=1;strokeColor=#050505;fontSize=16;fillColor=#C7C7C7;shadow=1;rounded=1;swimlaneFillColor=#F0F0F0;swimlaneLine=1;sketch=1;curveFitting=1;jiggle=2;fillStyle=cross-hatch;fontFamily=Architects Daughter;verticalAlign=middle;labelBorderColor=default;labelBackgroundColor=none;fontSource=https%3A%2F%2Ffonts.googleapis.com%2Fcss%3Ffamily%3DArchitects%2BDaughter;movable=1;resizable=1;rotatable=1;deletable=1;editable=1;locked=0;connectable=1;" parent="TzZJqTmakssSdBD6UN6_-54" vertex="1">
          <mxGeometry width="280" height="150" as="geometry" />
        </mxCell>
        <mxCell id="TzZJqTmakssSdBD6UN6_-56" value="" style="shape=tableRow;horizontal=0;startSize=0;swimlaneHead=0;swimlaneBody=0;top=0;left=0;bottom=0;right=0;collapsible=0;dropTarget=0;fillColor=none;points=[[0,0.5],[1,0.5]];portConstraint=eastwest;strokeColor=inherit;fontSize=14;fontFamily=Architects Daughter;verticalAlign=middle;labelBorderColor=default;labelBackgroundColor=none;fontSource=https%3A%2F%2Ffonts.googleapis.com%2Fcss%3Ffamily%3DArchitects%2BDaughter;movable=1;resizable=1;rotatable=1;deletable=1;editable=1;locked=0;connectable=1;" parent="TzZJqTmakssSdBD6UN6_-55" vertex="1">
          <mxGeometry y="30" width="280" height="30" as="geometry" />
        </mxCell>
        <mxCell id="TzZJqTmakssSdBD6UN6_-57" value="PK" style="shape=partialRectangle;connectable=1;fillColor=none;top=0;left=0;bottom=0;right=0;overflow=hidden;pointerEvents=1;strokeColor=inherit;fontSize=14;fontFamily=Architects Daughter;verticalAlign=middle;labelBorderColor=default;labelBackgroundColor=none;fontStyle=1;fontSource=https%3A%2F%2Ffonts.googleapis.com%2Fcss%3Ffamily%3DArchitects%2BDaughter;movable=1;resizable=1;rotatable=1;deletable=1;editable=1;locked=0;" parent="TzZJqTmakssSdBD6UN6_-56" vertex="1">
          <mxGeometry width="47" height="30" as="geometry">
            <mxRectangle width="47" height="30" as="alternateBounds" />
          </mxGeometry>
        </mxCell>
        <mxCell id="TzZJqTmakssSdBD6UN6_-58" value="*Major_No" style="shape=partialRectangle;connectable=1;fillColor=none;top=0;left=0;bottom=0;right=0;align=left;spacingLeft=6;overflow=hidden;strokeColor=inherit;fontSize=14;fontFamily=Architects Daughter;verticalAlign=middle;labelBorderColor=default;labelBackgroundColor=none;fontStyle=3;fontSource=https%3A%2F%2Ffonts.googleapis.com%2Fcss%3Ffamily%3DArchitects%2BDaughter;movable=1;resizable=1;rotatable=1;deletable=1;editable=1;locked=0;" parent="TzZJqTmakssSdBD6UN6_-56" vertex="1">
          <mxGeometry x="47" width="233" height="30" as="geometry">
            <mxRectangle width="233" height="30" as="alternateBounds" />
          </mxGeometry>
        </mxCell>
        <mxCell id="TzZJqTmakssSdBD6UN6_-59" value="" style="shape=tableRow;horizontal=0;startSize=0;swimlaneHead=0;swimlaneBody=0;top=0;left=0;bottom=0;right=0;collapsible=0;dropTarget=0;fillColor=none;points=[[0,0.5],[1,0.5]];portConstraint=eastwest;strokeColor=inherit;fontSize=14;fontFamily=Architects Daughter;verticalAlign=middle;labelBorderColor=default;labelBackgroundColor=none;fontSource=https%3A%2F%2Ffonts.googleapis.com%2Fcss%3Ffamily%3DArchitects%2BDaughter;movable=1;resizable=1;rotatable=1;deletable=1;editable=1;locked=0;connectable=1;" parent="TzZJqTmakssSdBD6UN6_-55" vertex="1">
          <mxGeometry y="60" width="280" height="30" as="geometry" />
        </mxCell>
        <mxCell id="TzZJqTmakssSdBD6UN6_-60" value="" style="shape=partialRectangle;connectable=1;fillColor=none;top=0;left=0;bottom=0;right=0;overflow=hidden;strokeColor=inherit;fontSize=14;fontFamily=Architects Daughter;verticalAlign=middle;labelBorderColor=default;labelBackgroundColor=none;fontSource=https%3A%2F%2Ffonts.googleapis.com%2Fcss%3Ffamily%3DArchitects%2BDaughter;movable=1;resizable=1;rotatable=1;deletable=1;editable=1;locked=0;" parent="TzZJqTmakssSdBD6UN6_-59" vertex="1">
          <mxGeometry width="47" height="30" as="geometry">
            <mxRectangle width="47" height="30" as="alternateBounds" />
          </mxGeometry>
        </mxCell>
        <mxCell id="TzZJqTmakssSdBD6UN6_-61" value="*Major_Name" style="shape=partialRectangle;connectable=1;fillColor=none;top=0;left=0;bottom=0;right=0;align=left;spacingLeft=6;overflow=hidden;strokeColor=inherit;fontSize=14;fontFamily=Architects Daughter;verticalAlign=middle;labelBorderColor=default;labelBackgroundColor=none;fontSource=https%3A%2F%2Ffonts.googleapis.com%2Fcss%3Ffamily%3DArchitects%2BDaughter;movable=1;resizable=1;rotatable=1;deletable=1;editable=1;locked=0;" parent="TzZJqTmakssSdBD6UN6_-59" vertex="1">
          <mxGeometry x="47" width="233" height="30" as="geometry">
            <mxRectangle width="233" height="30" as="alternateBounds" />
          </mxGeometry>
        </mxCell>
        <mxCell id="TzZJqTmakssSdBD6UN6_-62" value="" style="shape=tableRow;horizontal=0;startSize=0;swimlaneHead=0;swimlaneBody=0;top=0;left=0;bottom=0;right=0;collapsible=0;dropTarget=0;fillColor=none;points=[[0,0.5],[1,0.5]];portConstraint=eastwest;strokeColor=inherit;fontSize=14;fontFamily=Architects Daughter;verticalAlign=middle;labelBorderColor=default;labelBackgroundColor=none;fontSource=https%3A%2F%2Ffonts.googleapis.com%2Fcss%3Ffamily%3DArchitects%2BDaughter;movable=1;resizable=1;rotatable=1;deletable=1;editable=1;locked=0;connectable=1;" parent="TzZJqTmakssSdBD6UN6_-55" vertex="1">
          <mxGeometry y="90" width="280" height="30" as="geometry" />
        </mxCell>
        <mxCell id="TzZJqTmakssSdBD6UN6_-63" value="" style="shape=partialRectangle;connectable=1;fillColor=none;top=0;left=0;bottom=0;right=0;overflow=hidden;pointerEvents=1;strokeColor=inherit;fontSize=14;fontFamily=Architects Daughter;verticalAlign=middle;labelBorderColor=default;labelBackgroundColor=none;fontSource=https%3A%2F%2Ffonts.googleapis.com%2Fcss%3Ffamily%3DArchitects%2BDaughter;movable=1;resizable=1;rotatable=1;deletable=1;editable=1;locked=0;" parent="TzZJqTmakssSdBD6UN6_-62" vertex="1">
          <mxGeometry width="47" height="30" as="geometry">
            <mxRectangle width="47" height="30" as="alternateBounds" />
          </mxGeometry>
        </mxCell>
        <mxCell id="TzZJqTmakssSdBD6UN6_-64" value="*Major_Accreditation" style="shape=partialRectangle;connectable=1;fillColor=none;top=0;left=0;bottom=0;right=0;align=left;spacingLeft=6;overflow=hidden;strokeColor=inherit;fontSize=14;fontFamily=Architects Daughter;verticalAlign=middle;labelBorderColor=default;labelBackgroundColor=none;fontSource=https%3A%2F%2Ffonts.googleapis.com%2Fcss%3Ffamily%3DArchitects%2BDaughter;movable=1;resizable=1;rotatable=1;deletable=1;editable=1;locked=0;" parent="TzZJqTmakssSdBD6UN6_-62" vertex="1">
          <mxGeometry x="47" width="233" height="30" as="geometry">
            <mxRectangle width="233" height="30" as="alternateBounds" />
          </mxGeometry>
        </mxCell>
        <mxCell id="TzZJqTmakssSdBD6UN6_-65" value="" style="shape=tableRow;horizontal=0;startSize=0;swimlaneHead=0;swimlaneBody=0;top=0;left=0;bottom=0;right=0;collapsible=0;dropTarget=0;fillColor=none;points=[[0,0.5],[1,0.5]];portConstraint=eastwest;strokeColor=inherit;fontSize=14;fontFamily=Architects Daughter;verticalAlign=middle;labelBorderColor=default;labelBackgroundColor=none;fontSource=https%3A%2F%2Ffonts.googleapis.com%2Fcss%3Ffamily%3DArchitects%2BDaughter;movable=1;resizable=1;rotatable=1;deletable=1;editable=1;locked=0;connectable=1;" parent="TzZJqTmakssSdBD6UN6_-55" vertex="1">
          <mxGeometry y="120" width="280" height="30" as="geometry" />
        </mxCell>
        <mxCell id="TzZJqTmakssSdBD6UN6_-66" value="" style="shape=partialRectangle;connectable=1;fillColor=none;top=0;left=0;bottom=0;right=0;overflow=hidden;strokeColor=inherit;fontSize=14;fontFamily=Architects Daughter;verticalAlign=middle;labelBorderColor=default;labelBackgroundColor=none;fontSource=https%3A%2F%2Ffonts.googleapis.com%2Fcss%3Ffamily%3DArchitects%2BDaughter;movable=1;resizable=1;rotatable=1;deletable=1;editable=1;locked=0;" parent="TzZJqTmakssSdBD6UN6_-65" vertex="1">
          <mxGeometry width="47" height="30" as="geometry">
            <mxRectangle width="47" height="30" as="alternateBounds" />
          </mxGeometry>
        </mxCell>
        <mxCell id="TzZJqTmakssSdBD6UN6_-67" value="*Major_Description" style="shape=partialRectangle;connectable=1;fillColor=none;top=0;left=0;bottom=0;right=0;align=left;spacingLeft=6;overflow=hidden;strokeColor=inherit;fontSize=14;fontFamily=Architects Daughter;verticalAlign=middle;labelBorderColor=default;labelBackgroundColor=none;fontSource=https%3A%2F%2Ffonts.googleapis.com%2Fcss%3Ffamily%3DArchitects%2BDaughter;movable=1;resizable=1;rotatable=1;deletable=1;editable=1;locked=0;" parent="TzZJqTmakssSdBD6UN6_-65" vertex="1">
          <mxGeometry x="47" width="233" height="30" as="geometry">
            <mxRectangle width="233" height="30" as="alternateBounds" />
          </mxGeometry>
        </mxCell>
        <mxCell id="TzZJqTmakssSdBD6UN6_-68" value="" style="line;strokeWidth=1;rotatable=1;dashed=0;labelPosition=right;align=left;verticalAlign=middle;spacingTop=0;spacingLeft=6;points=[];portConstraint=eastwest;strokeColor=#000000;fontFamily=Architects Daughter;fontSize=14;labelBorderColor=default;labelBackgroundColor=none;fontSource=https%3A%2F%2Ffonts.googleapis.com%2Fcss%3Ffamily%3DArchitects%2BDaughter;movable=1;resizable=1;deletable=1;editable=1;locked=0;connectable=1;" parent="TzZJqTmakssSdBD6UN6_-54" vertex="1">
          <mxGeometry y="55" width="280" height="10" as="geometry" />
        </mxCell>
        <mxCell id="TzZJqTmakssSdBD6UN6_-69" style="edgeStyle=orthogonalEdgeStyle;rounded=1;orthogonalLoop=1;jettySize=auto;html=1;entryX=0;entryY=0.5;entryDx=0;entryDy=0;endArrow=ERzeroToMany;shadow=1;startSize=11;endSize=11;endFill=0;jumpSize=11;jumpStyle=line;startArrow=ERmandOne;startFill=0;exitX=0;exitY=0.5;exitDx=0;exitDy=0;movable=1;resizable=1;rotatable=1;deletable=1;editable=1;locked=0;connectable=1;" parent="TzZJqTmakssSdBD6UN6_-1" source="TzZJqTmakssSdBD6UN6_-56" target="TzZJqTmakssSdBD6UN6_-38" edge="1">
          <mxGeometry relative="1" as="geometry">
            <Array as="points">
              <mxPoint x="850" y="465" />
              <mxPoint x="850" y="215" />
            </Array>
          </mxGeometry>
        </mxCell>
        <mxCell id="TzZJqTmakssSdBD6UN6_-70" value="" style="group;movable=1;resizable=1;rotatable=1;deletable=1;editable=1;locked=0;connectable=1;" parent="TzZJqTmakssSdBD6UN6_-1" vertex="1" connectable="0">
          <mxGeometry x="860" y="630" width="280" height="150" as="geometry" />
        </mxCell>
        <mxCell id="TzZJqTmakssSdBD6UN6_-71" value="**MsFaculty" style="shape=table;startSize=30;container=1;collapsible=0;childLayout=tableLayout;fixedRows=1;rowLines=0;fontStyle=1;strokeColor=#050505;fontSize=16;fillColor=#C7C7C7;shadow=1;rounded=1;swimlaneFillColor=#F0F0F0;swimlaneLine=1;sketch=1;curveFitting=1;jiggle=2;fillStyle=cross-hatch;fontFamily=Architects Daughter;verticalAlign=middle;labelBorderColor=default;labelBackgroundColor=none;fontSource=https%3A%2F%2Ffonts.googleapis.com%2Fcss%3Ffamily%3DArchitects%2BDaughter;movable=1;resizable=1;rotatable=1;deletable=1;editable=1;locked=0;connectable=1;" parent="TzZJqTmakssSdBD6UN6_-70" vertex="1">
          <mxGeometry width="280" height="150" as="geometry" />
        </mxCell>
        <mxCell id="TzZJqTmakssSdBD6UN6_-72" value="" style="shape=tableRow;horizontal=0;startSize=0;swimlaneHead=0;swimlaneBody=0;top=0;left=0;bottom=0;right=0;collapsible=0;dropTarget=0;fillColor=none;points=[[0,0.5],[1,0.5]];portConstraint=eastwest;strokeColor=inherit;fontSize=14;fontFamily=Architects Daughter;verticalAlign=middle;labelBorderColor=default;labelBackgroundColor=none;fontSource=https%3A%2F%2Ffonts.googleapis.com%2Fcss%3Ffamily%3DArchitects%2BDaughter;movable=1;resizable=1;rotatable=1;deletable=1;editable=1;locked=0;connectable=1;" parent="TzZJqTmakssSdBD6UN6_-71" vertex="1">
          <mxGeometry y="30" width="280" height="30" as="geometry" />
        </mxCell>
        <mxCell id="TzZJqTmakssSdBD6UN6_-73" value="PK" style="shape=partialRectangle;connectable=1;fillColor=none;top=0;left=0;bottom=0;right=0;overflow=hidden;pointerEvents=1;strokeColor=inherit;fontSize=14;fontFamily=Architects Daughter;verticalAlign=middle;labelBorderColor=default;labelBackgroundColor=none;fontStyle=1;fontSource=https%3A%2F%2Ffonts.googleapis.com%2Fcss%3Ffamily%3DArchitects%2BDaughter;movable=1;resizable=1;rotatable=1;deletable=1;editable=1;locked=0;" parent="TzZJqTmakssSdBD6UN6_-72" vertex="1">
          <mxGeometry width="47" height="30" as="geometry">
            <mxRectangle width="47" height="30" as="alternateBounds" />
          </mxGeometry>
        </mxCell>
        <mxCell id="TzZJqTmakssSdBD6UN6_-74" value="*Faculty_No" style="shape=partialRectangle;connectable=1;fillColor=none;top=0;left=0;bottom=0;right=0;align=left;spacingLeft=6;overflow=hidden;strokeColor=inherit;fontSize=14;fontFamily=Architects Daughter;verticalAlign=middle;labelBorderColor=default;labelBackgroundColor=none;fontStyle=3;fontSource=https%3A%2F%2Ffonts.googleapis.com%2Fcss%3Ffamily%3DArchitects%2BDaughter;movable=1;resizable=1;rotatable=1;deletable=1;editable=1;locked=0;" parent="TzZJqTmakssSdBD6UN6_-72" vertex="1">
          <mxGeometry x="47" width="233" height="30" as="geometry">
            <mxRectangle width="233" height="30" as="alternateBounds" />
          </mxGeometry>
        </mxCell>
        <mxCell id="TzZJqTmakssSdBD6UN6_-75" value="" style="shape=tableRow;horizontal=0;startSize=0;swimlaneHead=0;swimlaneBody=0;top=0;left=0;bottom=0;right=0;collapsible=0;dropTarget=0;fillColor=none;points=[[0,0.5],[1,0.5]];portConstraint=eastwest;strokeColor=inherit;fontSize=14;fontFamily=Architects Daughter;verticalAlign=middle;labelBorderColor=default;labelBackgroundColor=none;fontSource=https%3A%2F%2Ffonts.googleapis.com%2Fcss%3Ffamily%3DArchitects%2BDaughter;movable=1;resizable=1;rotatable=1;deletable=1;editable=1;locked=0;connectable=1;" parent="TzZJqTmakssSdBD6UN6_-71" vertex="1">
          <mxGeometry y="60" width="280" height="30" as="geometry" />
        </mxCell>
        <mxCell id="TzZJqTmakssSdBD6UN6_-76" value="" style="shape=partialRectangle;connectable=1;fillColor=none;top=0;left=0;bottom=0;right=0;overflow=hidden;strokeColor=inherit;fontSize=14;fontFamily=Architects Daughter;verticalAlign=middle;labelBorderColor=default;labelBackgroundColor=none;fontSource=https%3A%2F%2Ffonts.googleapis.com%2Fcss%3Ffamily%3DArchitects%2BDaughter;movable=1;resizable=1;rotatable=1;deletable=1;editable=1;locked=0;" parent="TzZJqTmakssSdBD6UN6_-75" vertex="1">
          <mxGeometry width="47" height="30" as="geometry">
            <mxRectangle width="47" height="30" as="alternateBounds" />
          </mxGeometry>
        </mxCell>
        <mxCell id="TzZJqTmakssSdBD6UN6_-77" value="*Faculty_Name" style="shape=partialRectangle;connectable=1;fillColor=none;top=0;left=0;bottom=0;right=0;align=left;spacingLeft=6;overflow=hidden;strokeColor=inherit;fontSize=14;fontFamily=Architects Daughter;verticalAlign=middle;labelBorderColor=default;labelBackgroundColor=none;fontSource=https%3A%2F%2Ffonts.googleapis.com%2Fcss%3Ffamily%3DArchitects%2BDaughter;movable=1;resizable=1;rotatable=1;deletable=1;editable=1;locked=0;" parent="TzZJqTmakssSdBD6UN6_-75" vertex="1">
          <mxGeometry x="47" width="233" height="30" as="geometry">
            <mxRectangle width="233" height="30" as="alternateBounds" />
          </mxGeometry>
        </mxCell>
        <mxCell id="TzZJqTmakssSdBD6UN6_-78" value="" style="shape=tableRow;horizontal=0;startSize=0;swimlaneHead=0;swimlaneBody=0;top=0;left=0;bottom=0;right=0;collapsible=0;dropTarget=0;fillColor=none;points=[[0,0.5],[1,0.5]];portConstraint=eastwest;strokeColor=inherit;fontSize=14;fontFamily=Architects Daughter;verticalAlign=middle;labelBorderColor=default;labelBackgroundColor=none;fontSource=https%3A%2F%2Ffonts.googleapis.com%2Fcss%3Ffamily%3DArchitects%2BDaughter;movable=1;resizable=1;rotatable=1;deletable=1;editable=1;locked=0;connectable=1;" parent="TzZJqTmakssSdBD6UN6_-71" vertex="1">
          <mxGeometry y="90" width="280" height="30" as="geometry" />
        </mxCell>
        <mxCell id="TzZJqTmakssSdBD6UN6_-79" value="" style="shape=partialRectangle;connectable=1;fillColor=none;top=0;left=0;bottom=0;right=0;overflow=hidden;pointerEvents=1;strokeColor=inherit;fontSize=14;fontFamily=Architects Daughter;verticalAlign=middle;labelBorderColor=default;labelBackgroundColor=none;fontSource=https%3A%2F%2Ffonts.googleapis.com%2Fcss%3Ffamily%3DArchitects%2BDaughter;movable=1;resizable=1;rotatable=1;deletable=1;editable=1;locked=0;" parent="TzZJqTmakssSdBD6UN6_-78" vertex="1">
          <mxGeometry width="47" height="30" as="geometry">
            <mxRectangle width="47" height="30" as="alternateBounds" />
          </mxGeometry>
        </mxCell>
        <mxCell id="TzZJqTmakssSdBD6UN6_-80" value="*Faculty_Location" style="shape=partialRectangle;connectable=1;fillColor=none;top=0;left=0;bottom=0;right=0;align=left;spacingLeft=6;overflow=hidden;strokeColor=inherit;fontSize=14;fontFamily=Architects Daughter;verticalAlign=middle;labelBorderColor=default;labelBackgroundColor=none;fontSource=https%3A%2F%2Ffonts.googleapis.com%2Fcss%3Ffamily%3DArchitects%2BDaughter;movable=1;resizable=1;rotatable=1;deletable=1;editable=1;locked=0;" parent="TzZJqTmakssSdBD6UN6_-78" vertex="1">
          <mxGeometry x="47" width="233" height="30" as="geometry">
            <mxRectangle width="233" height="30" as="alternateBounds" />
          </mxGeometry>
        </mxCell>
        <mxCell id="TzZJqTmakssSdBD6UN6_-81" value="" style="shape=tableRow;horizontal=0;startSize=0;swimlaneHead=0;swimlaneBody=0;top=0;left=0;bottom=0;right=0;collapsible=0;dropTarget=0;fillColor=none;points=[[0,0.5],[1,0.5]];portConstraint=eastwest;strokeColor=inherit;fontSize=14;fontFamily=Architects Daughter;verticalAlign=middle;labelBorderColor=default;labelBackgroundColor=none;fontSource=https%3A%2F%2Ffonts.googleapis.com%2Fcss%3Ffamily%3DArchitects%2BDaughter;movable=1;resizable=1;rotatable=1;deletable=1;editable=1;locked=0;connectable=1;" parent="TzZJqTmakssSdBD6UN6_-71" vertex="1">
          <mxGeometry y="120" width="280" height="30" as="geometry" />
        </mxCell>
        <mxCell id="TzZJqTmakssSdBD6UN6_-82" value="" style="shape=partialRectangle;connectable=1;fillColor=none;top=0;left=0;bottom=0;right=0;overflow=hidden;strokeColor=inherit;fontSize=14;fontFamily=Architects Daughter;verticalAlign=middle;labelBorderColor=default;labelBackgroundColor=none;fontSource=https%3A%2F%2Ffonts.googleapis.com%2Fcss%3Ffamily%3DArchitects%2BDaughter;movable=1;resizable=1;rotatable=1;deletable=1;editable=1;locked=0;" parent="TzZJqTmakssSdBD6UN6_-81" vertex="1">
          <mxGeometry width="47" height="30" as="geometry">
            <mxRectangle width="47" height="30" as="alternateBounds" />
          </mxGeometry>
        </mxCell>
        <mxCell id="TzZJqTmakssSdBD6UN6_-83" value="*Faculty_Description" style="shape=partialRectangle;connectable=1;fillColor=none;top=0;left=0;bottom=0;right=0;align=left;spacingLeft=6;overflow=hidden;strokeColor=inherit;fontSize=14;fontFamily=Architects Daughter;verticalAlign=middle;labelBorderColor=default;labelBackgroundColor=none;fontSource=https%3A%2F%2Ffonts.googleapis.com%2Fcss%3Ffamily%3DArchitects%2BDaughter;movable=1;resizable=1;rotatable=1;deletable=1;editable=1;locked=0;" parent="TzZJqTmakssSdBD6UN6_-81" vertex="1">
          <mxGeometry x="47" width="233" height="30" as="geometry">
            <mxRectangle width="233" height="30" as="alternateBounds" />
          </mxGeometry>
        </mxCell>
        <mxCell id="TzZJqTmakssSdBD6UN6_-84" value="" style="line;strokeWidth=1;rotatable=1;dashed=0;labelPosition=right;align=left;verticalAlign=middle;spacingTop=0;spacingLeft=6;points=[];portConstraint=eastwest;strokeColor=#000000;fontFamily=Architects Daughter;fontSize=14;labelBorderColor=default;labelBackgroundColor=none;fontSource=https%3A%2F%2Ffonts.googleapis.com%2Fcss%3Ffamily%3DArchitects%2BDaughter;movable=1;resizable=1;deletable=1;editable=1;locked=0;connectable=1;" parent="TzZJqTmakssSdBD6UN6_-70" vertex="1">
          <mxGeometry y="55" width="280" height="10" as="geometry" />
        </mxCell>
        <mxCell id="TzZJqTmakssSdBD6UN6_-85" style="edgeStyle=orthogonalEdgeStyle;rounded=1;orthogonalLoop=1;jettySize=auto;html=1;entryX=0;entryY=0.5;entryDx=0;entryDy=0;endArrow=ERzeroToMany;shadow=1;startSize=11;endSize=11;endFill=0;jumpStyle=line;jumpSize=11;startArrow=ERmandOne;startFill=0;exitX=0;exitY=0.5;exitDx=0;exitDy=0;movable=1;resizable=1;rotatable=1;deletable=1;editable=1;locked=0;connectable=1;" parent="TzZJqTmakssSdBD6UN6_-1" source="TzZJqTmakssSdBD6UN6_-72" target="TzZJqTmakssSdBD6UN6_-35" edge="1">
          <mxGeometry relative="1" as="geometry">
            <Array as="points">
              <mxPoint x="810" y="675" />
              <mxPoint x="810" y="185" />
            </Array>
          </mxGeometry>
        </mxCell>
        <mxCell id="TzZJqTmakssSdBD6UN6_-86" value="" style="group;movable=1;resizable=1;rotatable=1;deletable=1;editable=1;locked=0;connectable=1;" parent="TzZJqTmakssSdBD6UN6_-1" vertex="1" connectable="0">
          <mxGeometry x="110" y="510" width="280" height="270" as="geometry" />
        </mxCell>
        <mxCell id="TzZJqTmakssSdBD6UN6_-87" value="MsCourse" style="shape=table;startSize=30;container=1;collapsible=0;childLayout=tableLayout;fixedRows=1;rowLines=0;fontStyle=1;strokeColor=#050505;fontSize=16;fillColor=#C7C7C7;shadow=1;rounded=1;swimlaneFillColor=#F0F0F0;swimlaneLine=1;sketch=1;curveFitting=1;jiggle=2;fillStyle=cross-hatch;fontFamily=Architects Daughter;verticalAlign=middle;labelBorderColor=default;labelBackgroundColor=none;fontSource=https%3A%2F%2Ffonts.googleapis.com%2Fcss%3Ffamily%3DArchitects%2BDaughter;movable=1;resizable=1;rotatable=1;deletable=1;editable=1;locked=0;connectable=1;" parent="TzZJqTmakssSdBD6UN6_-86" vertex="1">
          <mxGeometry width="280" height="270" as="geometry" />
        </mxCell>
        <mxCell id="TzZJqTmakssSdBD6UN6_-88" value="" style="shape=tableRow;horizontal=0;startSize=0;swimlaneHead=0;swimlaneBody=0;top=0;left=0;bottom=0;right=0;collapsible=0;dropTarget=0;fillColor=none;points=[[0,0.5],[1,0.5]];portConstraint=eastwest;strokeColor=inherit;fontSize=14;fontFamily=Architects Daughter;verticalAlign=middle;labelBorderColor=default;labelBackgroundColor=none;fontSource=https%3A%2F%2Ffonts.googleapis.com%2Fcss%3Ffamily%3DArchitects%2BDaughter;movable=1;resizable=1;rotatable=1;deletable=1;editable=1;locked=0;connectable=1;" parent="TzZJqTmakssSdBD6UN6_-87" vertex="1">
          <mxGeometry y="30" width="280" height="30" as="geometry" />
        </mxCell>
        <mxCell id="TzZJqTmakssSdBD6UN6_-89" value="PK" style="shape=partialRectangle;connectable=1;fillColor=none;top=0;left=0;bottom=0;right=0;overflow=hidden;pointerEvents=1;strokeColor=inherit;fontSize=14;fontFamily=Architects Daughter;verticalAlign=middle;labelBorderColor=default;labelBackgroundColor=none;fontStyle=1;fontSource=https%3A%2F%2Ffonts.googleapis.com%2Fcss%3Ffamily%3DArchitects%2BDaughter;movable=1;resizable=1;rotatable=1;deletable=1;editable=1;locked=0;" parent="TzZJqTmakssSdBD6UN6_-88" vertex="1">
          <mxGeometry width="47" height="30" as="geometry">
            <mxRectangle width="47" height="30" as="alternateBounds" />
          </mxGeometry>
        </mxCell>
        <mxCell id="TzZJqTmakssSdBD6UN6_-90" value="Course_No" style="shape=partialRectangle;connectable=1;fillColor=none;top=0;left=0;bottom=0;right=0;align=left;spacingLeft=6;overflow=hidden;strokeColor=inherit;fontSize=14;fontFamily=Architects Daughter;verticalAlign=middle;labelBorderColor=default;labelBackgroundColor=none;fontStyle=3;fontSource=https%3A%2F%2Ffonts.googleapis.com%2Fcss%3Ffamily%3DArchitects%2BDaughter;movable=1;resizable=1;rotatable=1;deletable=1;editable=1;locked=0;" parent="TzZJqTmakssSdBD6UN6_-88" vertex="1">
          <mxGeometry x="47" width="233" height="30" as="geometry">
            <mxRectangle width="233" height="30" as="alternateBounds" />
          </mxGeometry>
        </mxCell>
        <mxCell id="TzZJqTmakssSdBD6UN6_-91" value="" style="shape=tableRow;horizontal=0;startSize=0;swimlaneHead=0;swimlaneBody=0;top=0;left=0;bottom=0;right=0;collapsible=0;dropTarget=0;fillColor=none;points=[[0,0.5],[1,0.5]];portConstraint=eastwest;strokeColor=inherit;fontSize=14;fontFamily=Architects Daughter;verticalAlign=middle;labelBorderColor=default;labelBackgroundColor=none;fontSource=https%3A%2F%2Ffonts.googleapis.com%2Fcss%3Ffamily%3DArchitects%2BDaughter;movable=1;resizable=1;rotatable=1;deletable=1;editable=1;locked=0;connectable=1;" parent="TzZJqTmakssSdBD6UN6_-87" vertex="1">
          <mxGeometry y="60" width="280" height="30" as="geometry" />
        </mxCell>
        <mxCell id="TzZJqTmakssSdBD6UN6_-92" value="" style="shape=partialRectangle;connectable=1;fillColor=none;top=0;left=0;bottom=0;right=0;overflow=hidden;strokeColor=inherit;fontSize=14;fontFamily=Architects Daughter;verticalAlign=middle;labelBorderColor=default;labelBackgroundColor=none;fontSource=https%3A%2F%2Ffonts.googleapis.com%2Fcss%3Ffamily%3DArchitects%2BDaughter;movable=1;resizable=1;rotatable=1;deletable=1;editable=1;locked=0;" parent="TzZJqTmakssSdBD6UN6_-91" vertex="1">
          <mxGeometry width="47" height="30" as="geometry">
            <mxRectangle width="47" height="30" as="alternateBounds" />
          </mxGeometry>
        </mxCell>
        <mxCell id="TzZJqTmakssSdBD6UN6_-93" value="Course_Name" style="shape=partialRectangle;connectable=1;fillColor=none;top=0;left=0;bottom=0;right=0;align=left;spacingLeft=6;overflow=hidden;strokeColor=inherit;fontSize=14;fontFamily=Architects Daughter;verticalAlign=middle;labelBorderColor=default;labelBackgroundColor=none;fontSource=https%3A%2F%2Ffonts.googleapis.com%2Fcss%3Ffamily%3DArchitects%2BDaughter;movable=1;resizable=1;rotatable=1;deletable=1;editable=1;locked=0;" parent="TzZJqTmakssSdBD6UN6_-91" vertex="1">
          <mxGeometry x="47" width="233" height="30" as="geometry">
            <mxRectangle width="233" height="30" as="alternateBounds" />
          </mxGeometry>
        </mxCell>
        <mxCell id="TzZJqTmakssSdBD6UN6_-94" value="" style="shape=tableRow;horizontal=0;startSize=0;swimlaneHead=0;swimlaneBody=0;top=0;left=0;bottom=0;right=0;collapsible=0;dropTarget=0;fillColor=none;points=[[0,0.5],[1,0.5]];portConstraint=eastwest;strokeColor=inherit;fontSize=14;fontFamily=Architects Daughter;verticalAlign=middle;labelBorderColor=default;labelBackgroundColor=none;fontSource=https%3A%2F%2Ffonts.googleapis.com%2Fcss%3Ffamily%3DArchitects%2BDaughter;movable=1;resizable=1;rotatable=1;deletable=1;editable=1;locked=0;connectable=1;" parent="TzZJqTmakssSdBD6UN6_-87" vertex="1">
          <mxGeometry y="90" width="280" height="30" as="geometry" />
        </mxCell>
        <mxCell id="TzZJqTmakssSdBD6UN6_-95" value="" style="shape=partialRectangle;connectable=1;fillColor=none;top=0;left=0;bottom=0;right=0;overflow=hidden;strokeColor=inherit;fontSize=14;fontFamily=Architects Daughter;verticalAlign=middle;labelBorderColor=default;labelBackgroundColor=none;fontSource=https%3A%2F%2Ffonts.googleapis.com%2Fcss%3Ffamily%3DArchitects%2BDaughter;movable=1;resizable=1;rotatable=1;deletable=1;editable=1;locked=0;" parent="TzZJqTmakssSdBD6UN6_-94" vertex="1">
          <mxGeometry width="47" height="30" as="geometry">
            <mxRectangle width="47" height="30" as="alternateBounds" />
          </mxGeometry>
        </mxCell>
        <mxCell id="TzZJqTmakssSdBD6UN6_-96" value="*Course_Syllabus" style="shape=partialRectangle;connectable=1;fillColor=none;top=0;left=0;bottom=0;right=0;align=left;spacingLeft=6;overflow=hidden;strokeColor=inherit;fontSize=14;fontFamily=Architects Daughter;verticalAlign=middle;labelBorderColor=default;labelBackgroundColor=none;fontSource=https%3A%2F%2Ffonts.googleapis.com%2Fcss%3Ffamily%3DArchitects%2BDaughter;movable=1;resizable=1;rotatable=1;deletable=1;editable=1;locked=0;" parent="TzZJqTmakssSdBD6UN6_-94" vertex="1">
          <mxGeometry x="47" width="233" height="30" as="geometry">
            <mxRectangle width="233" height="30" as="alternateBounds" />
          </mxGeometry>
        </mxCell>
        <mxCell id="TzZJqTmakssSdBD6UN6_-97" value="" style="shape=tableRow;horizontal=0;startSize=0;swimlaneHead=0;swimlaneBody=0;top=0;left=0;bottom=0;right=0;collapsible=0;dropTarget=0;fillColor=none;points=[[0,0.5],[1,0.5]];portConstraint=eastwest;strokeColor=inherit;fontSize=14;fontFamily=Architects Daughter;verticalAlign=middle;labelBorderColor=default;labelBackgroundColor=none;fontSource=https%3A%2F%2Ffonts.googleapis.com%2Fcss%3Ffamily%3DArchitects%2BDaughter;movable=1;resizable=1;rotatable=1;deletable=1;editable=1;locked=0;connectable=1;" parent="TzZJqTmakssSdBD6UN6_-87" vertex="1">
          <mxGeometry y="120" width="280" height="30" as="geometry" />
        </mxCell>
        <mxCell id="TzZJqTmakssSdBD6UN6_-98" value="" style="shape=partialRectangle;connectable=1;fillColor=none;top=0;left=0;bottom=0;right=0;overflow=hidden;pointerEvents=1;strokeColor=inherit;fontSize=14;fontFamily=Architects Daughter;verticalAlign=middle;labelBorderColor=default;labelBackgroundColor=none;fontSource=https%3A%2F%2Ffonts.googleapis.com%2Fcss%3Ffamily%3DArchitects%2BDaughter;movable=1;resizable=1;rotatable=1;deletable=1;editable=1;locked=0;" parent="TzZJqTmakssSdBD6UN6_-97" vertex="1">
          <mxGeometry width="47" height="30" as="geometry">
            <mxRectangle width="47" height="30" as="alternateBounds" />
          </mxGeometry>
        </mxCell>
        <mxCell id="TzZJqTmakssSdBD6UN6_-99" value="*Course_Credit" style="shape=partialRectangle;connectable=1;fillColor=none;top=0;left=0;bottom=0;right=0;align=left;spacingLeft=6;overflow=hidden;strokeColor=inherit;fontSize=14;fontFamily=Architects Daughter;verticalAlign=middle;labelBorderColor=default;labelBackgroundColor=none;fontSource=https%3A%2F%2Ffonts.googleapis.com%2Fcss%3Ffamily%3DArchitects%2BDaughter;movable=1;resizable=1;rotatable=1;deletable=1;editable=1;locked=0;" parent="TzZJqTmakssSdBD6UN6_-97" vertex="1">
          <mxGeometry x="47" width="233" height="30" as="geometry">
            <mxRectangle width="233" height="30" as="alternateBounds" />
          </mxGeometry>
        </mxCell>
        <mxCell id="TzZJqTmakssSdBD6UN6_-100" value="" style="shape=tableRow;horizontal=0;startSize=0;swimlaneHead=0;swimlaneBody=0;top=0;left=0;bottom=0;right=0;collapsible=0;dropTarget=0;fillColor=none;points=[[0,0.5],[1,0.5]];portConstraint=eastwest;strokeColor=inherit;fontSize=14;fontFamily=Architects Daughter;verticalAlign=middle;labelBorderColor=default;labelBackgroundColor=none;fontSource=https%3A%2F%2Ffonts.googleapis.com%2Fcss%3Ffamily%3DArchitects%2BDaughter;movable=1;resizable=1;rotatable=1;deletable=1;editable=1;locked=0;connectable=1;" parent="TzZJqTmakssSdBD6UN6_-87" vertex="1">
          <mxGeometry y="150" width="280" height="30" as="geometry" />
        </mxCell>
        <mxCell id="TzZJqTmakssSdBD6UN6_-101" value="" style="shape=partialRectangle;connectable=1;fillColor=none;top=0;left=0;bottom=0;right=0;overflow=hidden;strokeColor=inherit;fontSize=14;fontFamily=Architects Daughter;verticalAlign=middle;labelBorderColor=default;labelBackgroundColor=none;fontSource=https%3A%2F%2Ffonts.googleapis.com%2Fcss%3Ffamily%3DArchitects%2BDaughter;movable=1;resizable=1;rotatable=1;deletable=1;editable=1;locked=0;" parent="TzZJqTmakssSdBD6UN6_-100" vertex="1">
          <mxGeometry width="47" height="30" as="geometry">
            <mxRectangle width="47" height="30" as="alternateBounds" />
          </mxGeometry>
        </mxCell>
        <mxCell id="TzZJqTmakssSdBD6UN6_-102" value="*Course_Term_Conditions" style="shape=partialRectangle;connectable=1;fillColor=none;top=0;left=0;bottom=0;right=0;align=left;spacingLeft=6;overflow=hidden;strokeColor=inherit;fontSize=14;fontFamily=Architects Daughter;verticalAlign=middle;labelBorderColor=default;labelBackgroundColor=none;fontSource=https%3A%2F%2Ffonts.googleapis.com%2Fcss%3Ffamily%3DArchitects%2BDaughter;movable=1;resizable=1;rotatable=1;deletable=1;editable=1;locked=0;" parent="TzZJqTmakssSdBD6UN6_-100" vertex="1">
          <mxGeometry x="47" width="233" height="30" as="geometry">
            <mxRectangle width="233" height="30" as="alternateBounds" />
          </mxGeometry>
        </mxCell>
        <mxCell id="TzZJqTmakssSdBD6UN6_-103" value="" style="shape=tableRow;horizontal=0;startSize=0;swimlaneHead=0;swimlaneBody=0;top=0;left=0;bottom=0;right=0;collapsible=0;dropTarget=0;fillColor=none;points=[[0,0.5],[1,0.5]];portConstraint=eastwest;strokeColor=inherit;fontSize=14;fontFamily=Architects Daughter;verticalAlign=middle;labelBorderColor=default;labelBackgroundColor=none;fontSource=https%3A%2F%2Ffonts.googleapis.com%2Fcss%3Ffamily%3DArchitects%2BDaughter;movable=1;resizable=1;rotatable=1;deletable=1;editable=1;locked=0;connectable=1;" parent="TzZJqTmakssSdBD6UN6_-87" vertex="1">
          <mxGeometry y="180" width="280" height="30" as="geometry" />
        </mxCell>
        <mxCell id="TzZJqTmakssSdBD6UN6_-104" value="" style="shape=partialRectangle;connectable=1;fillColor=none;top=0;left=0;bottom=0;right=0;overflow=hidden;strokeColor=inherit;fontSize=14;fontFamily=Architects Daughter;verticalAlign=middle;labelBorderColor=default;labelBackgroundColor=none;fontSource=https%3A%2F%2Ffonts.googleapis.com%2Fcss%3Ffamily%3DArchitects%2BDaughter;movable=1;resizable=1;rotatable=1;deletable=1;editable=1;locked=0;" parent="TzZJqTmakssSdBD6UN6_-103" vertex="1">
          <mxGeometry width="47" height="30" as="geometry">
            <mxRectangle width="47" height="30" as="alternateBounds" />
          </mxGeometry>
        </mxCell>
        <mxCell id="TzZJqTmakssSdBD6UN6_-105" value="*Course_Time_Duration" style="shape=partialRectangle;connectable=1;fillColor=none;top=0;left=0;bottom=0;right=0;align=left;spacingLeft=6;overflow=hidden;strokeColor=inherit;fontSize=14;fontFamily=Architects Daughter;verticalAlign=middle;labelBorderColor=default;labelBackgroundColor=none;fontSource=https%3A%2F%2Ffonts.googleapis.com%2Fcss%3Ffamily%3DArchitects%2BDaughter;movable=1;resizable=1;rotatable=1;deletable=1;editable=1;locked=0;" parent="TzZJqTmakssSdBD6UN6_-103" vertex="1">
          <mxGeometry x="47" width="233" height="30" as="geometry">
            <mxRectangle width="233" height="30" as="alternateBounds" />
          </mxGeometry>
        </mxCell>
        <mxCell id="TzZJqTmakssSdBD6UN6_-106" value="" style="shape=tableRow;horizontal=0;startSize=0;swimlaneHead=0;swimlaneBody=0;top=0;left=0;bottom=0;right=0;collapsible=0;dropTarget=0;fillColor=none;points=[[0,0.5],[1,0.5]];portConstraint=eastwest;strokeColor=inherit;fontSize=14;fontFamily=Architects Daughter;verticalAlign=middle;labelBorderColor=default;labelBackgroundColor=none;fontSource=https%3A%2F%2Ffonts.googleapis.com%2Fcss%3Ffamily%3DArchitects%2BDaughter;movable=1;resizable=1;rotatable=1;deletable=1;editable=1;locked=0;connectable=1;" parent="TzZJqTmakssSdBD6UN6_-87" vertex="1">
          <mxGeometry y="210" width="280" height="30" as="geometry" />
        </mxCell>
        <mxCell id="TzZJqTmakssSdBD6UN6_-107" value="" style="shape=partialRectangle;connectable=1;fillColor=none;top=0;left=0;bottom=0;right=0;overflow=hidden;strokeColor=inherit;fontSize=14;fontFamily=Architects Daughter;verticalAlign=middle;labelBorderColor=default;labelBackgroundColor=none;fontSource=https%3A%2F%2Ffonts.googleapis.com%2Fcss%3Ffamily%3DArchitects%2BDaughter;movable=1;resizable=1;rotatable=1;deletable=1;editable=1;locked=0;" parent="TzZJqTmakssSdBD6UN6_-106" vertex="1">
          <mxGeometry width="47" height="30" as="geometry">
            <mxRectangle width="47" height="30" as="alternateBounds" />
          </mxGeometry>
        </mxCell>
        <mxCell id="TzZJqTmakssSdBD6UN6_-108" value="*Course_Description" style="shape=partialRectangle;connectable=1;fillColor=none;top=0;left=0;bottom=0;right=0;align=left;spacingLeft=6;overflow=hidden;strokeColor=inherit;fontSize=14;fontFamily=Architects Daughter;verticalAlign=middle;labelBorderColor=default;labelBackgroundColor=none;fontSource=https%3A%2F%2Ffonts.googleapis.com%2Fcss%3Ffamily%3DArchitects%2BDaughter;movable=1;resizable=1;rotatable=1;deletable=1;editable=1;locked=0;" parent="TzZJqTmakssSdBD6UN6_-106" vertex="1">
          <mxGeometry x="47" width="233" height="30" as="geometry">
            <mxRectangle width="233" height="30" as="alternateBounds" />
          </mxGeometry>
        </mxCell>
        <mxCell id="TzZJqTmakssSdBD6UN6_-109" value="" style="shape=tableRow;horizontal=0;startSize=0;swimlaneHead=0;swimlaneBody=0;top=0;left=0;bottom=0;right=0;collapsible=0;dropTarget=0;fillColor=none;points=[[0,0.5],[1,0.5]];portConstraint=eastwest;strokeColor=inherit;fontSize=14;fontFamily=Architects Daughter;verticalAlign=middle;labelBorderColor=default;labelBackgroundColor=none;fontSource=https%3A%2F%2Ffonts.googleapis.com%2Fcss%3Ffamily%3DArchitects%2BDaughter;movable=1;resizable=1;rotatable=1;deletable=1;editable=1;locked=0;connectable=1;" parent="TzZJqTmakssSdBD6UN6_-87" vertex="1">
          <mxGeometry y="240" width="280" height="30" as="geometry" />
        </mxCell>
        <mxCell id="TzZJqTmakssSdBD6UN6_-110" value="" style="shape=partialRectangle;connectable=1;fillColor=none;top=0;left=0;bottom=0;right=0;overflow=hidden;strokeColor=inherit;fontSize=14;fontFamily=Architects Daughter;verticalAlign=middle;labelBorderColor=default;labelBackgroundColor=none;fontSource=https%3A%2F%2Ffonts.googleapis.com%2Fcss%3Ffamily%3DArchitects%2BDaughter;movable=1;resizable=1;rotatable=1;deletable=1;editable=1;locked=0;" parent="TzZJqTmakssSdBD6UN6_-109" vertex="1">
          <mxGeometry width="47" height="30" as="geometry">
            <mxRectangle width="47" height="30" as="alternateBounds" />
          </mxGeometry>
        </mxCell>
        <mxCell id="TzZJqTmakssSdBD6UN6_-111" value="*Course_Fee" style="shape=partialRectangle;connectable=1;fillColor=none;top=0;left=0;bottom=0;right=0;align=left;spacingLeft=6;overflow=hidden;strokeColor=inherit;fontSize=14;fontFamily=Architects Daughter;verticalAlign=middle;labelBorderColor=default;labelBackgroundColor=none;fontSource=https%3A%2F%2Ffonts.googleapis.com%2Fcss%3Ffamily%3DArchitects%2BDaughter;movable=1;resizable=1;rotatable=1;deletable=1;editable=1;locked=0;" parent="TzZJqTmakssSdBD6UN6_-109" vertex="1">
          <mxGeometry x="47" width="233" height="30" as="geometry">
            <mxRectangle width="233" height="30" as="alternateBounds" />
          </mxGeometry>
        </mxCell>
        <mxCell id="TzZJqTmakssSdBD6UN6_-112" value="" style="line;strokeWidth=1;rotatable=1;dashed=0;labelPosition=right;align=left;verticalAlign=middle;spacingTop=0;spacingLeft=6;points=[];portConstraint=eastwest;strokeColor=#000000;fontFamily=Architects Daughter;fontSize=14;labelBorderColor=default;labelBackgroundColor=none;fontSource=https%3A%2F%2Ffonts.googleapis.com%2Fcss%3Ffamily%3DArchitects%2BDaughter;movable=1;resizable=1;deletable=1;editable=1;locked=0;connectable=1;" parent="TzZJqTmakssSdBD6UN6_-86" vertex="1">
          <mxGeometry y="55" width="280" height="10" as="geometry" />
        </mxCell>
        <mxCell id="TzZJqTmakssSdBD6UN6_-113" value="&lt;font data-font-src=&quot;https://fonts.googleapis.com/css?family=Architects+Daughter&quot; face=&quot;Architects Daughter&quot; style=&quot;font-size: 20px;&quot;&gt;&lt;b style=&quot;font-size: 20px;&quot;&gt;&lt;i style=&quot;font-size: 20px;&quot;&gt;ORGANIZES&lt;/i&gt;&lt;/b&gt;&lt;/font&gt;" style="text;html=1;strokeColor=none;fillColor=none;align=center;verticalAlign=middle;whiteSpace=wrap;rounded=0;fontSize=20;movable=1;resizable=1;rotatable=1;deletable=1;editable=1;locked=0;connectable=1;" parent="TzZJqTmakssSdBD6UN6_-1" vertex="1">
          <mxGeometry x="585" y="785" width="60" height="30" as="geometry" />
        </mxCell>
        <mxCell id="TzZJqTmakssSdBD6UN6_-114" value="&lt;font data-font-src=&quot;https://fonts.googleapis.com/css?family=Architects+Daughter&quot; face=&quot;Architects Daughter&quot; style=&quot;font-size: 20px;&quot;&gt;&lt;b style=&quot;font-size: 20px;&quot;&gt;&lt;i style=&quot;font-size: 20px;&quot;&gt;TEACHES&lt;br&gt;&amp;amp; GUIDES&lt;br&gt;&lt;/i&gt;&lt;/b&gt;&lt;/font&gt;" style="text;html=1;strokeColor=none;fillColor=none;align=center;verticalAlign=middle;whiteSpace=wrap;rounded=0;fontSize=20;movable=1;resizable=1;rotatable=1;deletable=1;editable=1;locked=0;connectable=1;" parent="TzZJqTmakssSdBD6UN6_-1" vertex="1">
          <mxGeometry x="270" y="385" width="140" height="30" as="geometry" />
        </mxCell>
        <mxCell id="TzZJqTmakssSdBD6UN6_-115" value="&lt;font face=&quot;Architects Daughter&quot;&gt;&lt;b&gt;&lt;i&gt;REQUIRES&lt;/i&gt;&lt;/b&gt;&lt;/font&gt;" style="text;html=1;strokeColor=none;fillColor=none;align=center;verticalAlign=middle;whiteSpace=wrap;rounded=0;fontSize=20;movable=1;resizable=1;rotatable=1;deletable=1;editable=1;locked=0;connectable=1;" parent="TzZJqTmakssSdBD6UN6_-1" vertex="1">
          <mxGeometry x="205" y="455" width="90" height="30" as="geometry" />
        </mxCell>
        <mxCell id="TzZJqTmakssSdBD6UN6_-116" value="&lt;font data-font-src=&quot;https://fonts.googleapis.com/css?family=Architects+Daughter&quot; face=&quot;Architects Daughter&quot; style=&quot;font-size: 20px;&quot;&gt;&lt;b style=&quot;font-size: 20px;&quot;&gt;&lt;i style=&quot;font-size: 20px;&quot;&gt;APPLIES&lt;/i&gt;&lt;/b&gt;&lt;/font&gt;" style="text;html=1;strokeColor=none;fillColor=none;align=center;verticalAlign=middle;whiteSpace=wrap;rounded=0;fontSize=20;movable=1;resizable=1;rotatable=1;deletable=1;editable=1;locked=0;connectable=1;" parent="TzZJqTmakssSdBD6UN6_-1" vertex="1">
          <mxGeometry x="805" y="370" width="90" height="30" as="geometry" />
        </mxCell>
        <mxCell id="TzZJqTmakssSdBD6UN6_-117" value="&lt;font data-font-src=&quot;https://fonts.googleapis.com/css?family=Architects+Daughter&quot; face=&quot;Architects Daughter&quot; style=&quot;font-size: 14px;&quot;&gt;&lt;b style=&quot;font-size: 14px;&quot;&gt;&lt;i style=&quot;font-size: 14px;&quot;&gt;ORGANIZES&lt;/i&gt;&lt;/b&gt;&lt;/font&gt;" style="text;html=1;strokeColor=none;fillColor=none;align=center;verticalAlign=middle;whiteSpace=wrap;rounded=0;fontSize=14;movable=1;resizable=1;rotatable=1;deletable=1;editable=1;locked=0;connectable=1;" parent="TzZJqTmakssSdBD6UN6_-1" vertex="1">
          <mxGeometry x="770" y="510" width="90" height="30" as="geometry" />
        </mxCell>
        <mxCell id="TzZJqTmakssSdBD6UN6_-118" value="&lt;font data-font-src=&quot;https://fonts.googleapis.com/css?family=Architects+Daughter&quot; face=&quot;Architects Daughter&quot; style=&quot;font-size: 20px;&quot;&gt;&lt;b style=&quot;font-size: 20px;&quot;&gt;&lt;i style=&quot;font-size: 20px;&quot;&gt;SCHEDULES&lt;/i&gt;&lt;/b&gt;&lt;/font&gt;" style="text;html=1;strokeColor=none;fillColor=none;align=center;verticalAlign=middle;whiteSpace=wrap;rounded=0;fontSize=20;movable=1;resizable=1;rotatable=1;deletable=1;editable=1;locked=0;connectable=1;" parent="TzZJqTmakssSdBD6UN6_-1" vertex="1">
          <mxGeometry x="585" y="385" width="90" height="30" as="geometry" />
        </mxCell>
        <mxCell id="TzZJqTmakssSdBD6UN6_-119" value="&lt;font data-font-src=&quot;https://fonts.googleapis.com/css?family=Architects+Daughter&quot; face=&quot;Architects Daughter&quot; style=&quot;font-size: 20px;&quot;&gt;&lt;b style=&quot;font-size: 20px;&quot;&gt;&lt;i style=&quot;font-size: 20px;&quot;&gt;1&lt;/i&gt;&lt;/b&gt;&lt;/font&gt;" style="text;html=1;strokeColor=none;fillColor=none;align=center;verticalAlign=middle;whiteSpace=wrap;rounded=0;fontSize=20;movable=1;resizable=1;rotatable=1;deletable=1;editable=1;locked=0;connectable=1;" parent="TzZJqTmakssSdBD6UN6_-1" vertex="1">
          <mxGeometry x="69" y="525" width="60" height="30" as="geometry" />
        </mxCell>
        <mxCell id="TzZJqTmakssSdBD6UN6_-120" value="&lt;font data-font-src=&quot;https://fonts.googleapis.com/css?family=Architects+Daughter&quot; face=&quot;Architects Daughter&quot; style=&quot;font-size: 20px;&quot;&gt;&lt;b style=&quot;font-size: 20px;&quot;&gt;&lt;i style=&quot;font-size: 20px;&quot;&gt;1&lt;/i&gt;&lt;/b&gt;&lt;/font&gt;" style="text;html=1;strokeColor=none;fillColor=none;align=center;verticalAlign=middle;whiteSpace=wrap;rounded=0;fontSize=20;movable=1;resizable=1;rotatable=1;deletable=1;editable=1;locked=0;connectable=1;" parent="TzZJqTmakssSdBD6UN6_-1" vertex="1">
          <mxGeometry x="290" y="125" width="60" height="30" as="geometry" />
        </mxCell>
        <mxCell id="TzZJqTmakssSdBD6UN6_-121" value="&lt;font data-font-src=&quot;https://fonts.googleapis.com/css?family=Architects+Daughter&quot; face=&quot;Architects Daughter&quot; style=&quot;font-size: 20px;&quot;&gt;&lt;b style=&quot;font-size: 20px;&quot;&gt;&lt;i style=&quot;font-size: 20px;&quot;&gt;1&lt;/i&gt;&lt;/b&gt;&lt;/font&gt;" style="text;html=1;strokeColor=none;fillColor=none;align=center;verticalAlign=middle;whiteSpace=wrap;rounded=0;fontSize=20;movable=1;resizable=1;rotatable=1;deletable=1;editable=1;locked=0;connectable=1;" parent="TzZJqTmakssSdBD6UN6_-1" vertex="1">
          <mxGeometry x="805" y="645" width="60" height="30" as="geometry" />
        </mxCell>
        <mxCell id="TzZJqTmakssSdBD6UN6_-122" value="&lt;font data-font-src=&quot;https://fonts.googleapis.com/css?family=Architects+Daughter&quot; face=&quot;Architects Daughter&quot; style=&quot;font-size: 20px;&quot;&gt;&lt;b style=&quot;font-size: 20px;&quot;&gt;&lt;i style=&quot;font-size: 20px;&quot;&gt;1&lt;/i&gt;&lt;/b&gt;&lt;/font&gt;" style="text;html=1;strokeColor=none;fillColor=none;align=center;verticalAlign=middle;whiteSpace=wrap;rounded=0;fontSize=20;movable=1;resizable=1;rotatable=1;deletable=1;editable=1;locked=0;connectable=1;" parent="TzZJqTmakssSdBD6UN6_-1" vertex="1">
          <mxGeometry x="834" y="435" width="60" height="30" as="geometry" />
        </mxCell>
        <mxCell id="TzZJqTmakssSdBD6UN6_-123" value="&lt;font data-font-src=&quot;https://fonts.googleapis.com/css?family=Architects+Daughter&quot; face=&quot;Architects Daughter&quot; style=&quot;font-size: 20px;&quot;&gt;&lt;b style=&quot;font-size: 20px;&quot;&gt;&lt;i style=&quot;font-size: 20px;&quot;&gt;1&lt;/i&gt;&lt;/b&gt;&lt;/font&gt;" style="text;html=1;strokeColor=none;fillColor=none;align=center;verticalAlign=middle;whiteSpace=wrap;rounded=0;fontSize=20;movable=1;resizable=1;rotatable=1;deletable=1;editable=1;locked=0;connectable=1;" parent="TzZJqTmakssSdBD6UN6_-1" vertex="1">
          <mxGeometry x="1119" y="645" width="60" height="30" as="geometry" />
        </mxCell>
        <mxCell id="TzZJqTmakssSdBD6UN6_-124" value="&lt;font data-font-src=&quot;https://fonts.googleapis.com/css?family=Architects+Daughter&quot; face=&quot;Architects Daughter&quot; style=&quot;font-size: 20px;&quot;&gt;&lt;b style=&quot;font-size: 20px;&quot;&gt;&lt;i style=&quot;font-size: 20px;&quot;&gt;0..1&lt;/i&gt;&lt;/b&gt;&lt;/font&gt;" style="text;html=1;strokeColor=none;fillColor=none;align=center;verticalAlign=middle;whiteSpace=wrap;rounded=0;fontSize=20;movable=1;resizable=1;rotatable=1;deletable=1;editable=1;locked=0;connectable=1;" parent="TzZJqTmakssSdBD6UN6_-1" vertex="1">
          <mxGeometry x="820" y="125" width="60" height="30" as="geometry" />
        </mxCell>
        <mxCell id="TzZJqTmakssSdBD6UN6_-125" value="&lt;font data-font-src=&quot;https://fonts.googleapis.com/css?family=Architects+Daughter&quot; face=&quot;Architects Daughter&quot; style=&quot;font-size: 20px;&quot;&gt;&lt;b style=&quot;font-size: 20px;&quot;&gt;&lt;i style=&quot;font-size: 20px;&quot;&gt;0..n : 1&lt;/i&gt;&lt;/b&gt;&lt;/font&gt;" style="text;html=1;strokeColor=none;fillColor=none;align=center;verticalAlign=middle;whiteSpace=wrap;rounded=0;fontSize=20;movable=1;resizable=1;rotatable=1;deletable=1;editable=1;locked=0;connectable=1;" parent="TzZJqTmakssSdBD6UN6_-1" vertex="1">
          <mxGeometry x="600" y="407" width="60" height="30" as="geometry" />
        </mxCell>
        <mxCell id="TzZJqTmakssSdBD6UN6_-126" value="&lt;font data-font-src=&quot;https://fonts.googleapis.com/css?family=Architects+Daughter&quot; face=&quot;Architects Daughter&quot; style=&quot;font-size: 20px;&quot;&gt;&lt;b style=&quot;font-size: 20px;&quot;&gt;&lt;i style=&quot;font-size: 20px;&quot;&gt;0..n&lt;/i&gt;&lt;/b&gt;&lt;/font&gt;" style="text;html=1;strokeColor=none;fillColor=none;align=center;verticalAlign=middle;whiteSpace=wrap;rounded=0;fontSize=20;movable=1;resizable=1;rotatable=1;deletable=1;editable=1;locked=0;connectable=1;" parent="TzZJqTmakssSdBD6UN6_-1" vertex="1">
          <mxGeometry x="833" y="185" width="60" height="30" as="geometry" />
        </mxCell>
        <mxCell id="TzZJqTmakssSdBD6UN6_-127" value="&lt;font data-font-src=&quot;https://fonts.googleapis.com/css?family=Architects+Daughter&quot; face=&quot;Architects Daughter&quot; style=&quot;font-size: 20px;&quot;&gt;&lt;b style=&quot;font-size: 20px;&quot;&gt;&lt;i style=&quot;font-size: 20px;&quot;&gt;0..n&lt;/i&gt;&lt;/b&gt;&lt;/font&gt;" style="text;html=1;strokeColor=none;fillColor=none;align=center;verticalAlign=middle;whiteSpace=wrap;rounded=0;fontSize=20;movable=1;resizable=1;rotatable=1;deletable=1;editable=1;locked=0;connectable=1;" parent="TzZJqTmakssSdBD6UN6_-1" vertex="1">
          <mxGeometry x="820" y="155" width="60" height="30" as="geometry" />
        </mxCell>
        <mxCell id="TzZJqTmakssSdBD6UN6_-128" value="&lt;font data-font-src=&quot;https://fonts.googleapis.com/css?family=Architects+Daughter&quot; face=&quot;Architects Daughter&quot; style=&quot;font-size: 20px;&quot;&gt;&lt;b style=&quot;font-size: 20px;&quot;&gt;&lt;i style=&quot;font-size: 20px;&quot;&gt;1 : 0..n&lt;/i&gt;&lt;/b&gt;&lt;/font&gt;" style="text;html=1;strokeColor=none;fillColor=none;align=center;verticalAlign=middle;whiteSpace=wrap;rounded=0;fontSize=20;movable=1;resizable=1;rotatable=1;deletable=1;editable=1;locked=0;connectable=1;" parent="TzZJqTmakssSdBD6UN6_-1" vertex="1">
          <mxGeometry x="820" y="392" width="60" height="30" as="geometry" />
        </mxCell>
        <mxCell id="TzZJqTmakssSdBD6UN6_-129" value="&lt;font data-font-src=&quot;https://fonts.googleapis.com/css?family=Architects+Daughter&quot; face=&quot;Architects Daughter&quot; style=&quot;font-size: 20px;&quot;&gt;&lt;b style=&quot;font-size: 20px;&quot;&gt;&lt;i style=&quot;font-size: 20px;&quot;&gt;1 : 0..n&lt;/i&gt;&lt;/b&gt;&lt;/font&gt;" style="text;html=1;strokeColor=none;fillColor=none;align=center;verticalAlign=middle;whiteSpace=wrap;rounded=0;fontSize=20;movable=1;resizable=1;rotatable=1;deletable=1;editable=1;locked=0;connectable=1;" parent="TzZJqTmakssSdBD6UN6_-1" vertex="1">
          <mxGeometry x="785" y="530" width="60" height="30" as="geometry" />
        </mxCell>
        <mxCell id="TzZJqTmakssSdBD6UN6_-130" value="&lt;font data-font-src=&quot;https://fonts.googleapis.com/css?family=Architects+Daughter&quot; face=&quot;Architects Daughter&quot; style=&quot;font-size: 20px;&quot;&gt;&lt;b style=&quot;font-size: 20px;&quot;&gt;&lt;i style=&quot;font-size: 20px;&quot;&gt;1 : 0..n&lt;/i&gt;&lt;/b&gt;&lt;/font&gt;" style="text;html=1;strokeColor=none;fillColor=none;align=center;verticalAlign=middle;whiteSpace=wrap;rounded=0;fontSize=20;movable=1;resizable=1;rotatable=1;deletable=1;editable=1;locked=0;connectable=1;" parent="TzZJqTmakssSdBD6UN6_-1" vertex="1">
          <mxGeometry x="585" y="807" width="60" height="30" as="geometry" />
        </mxCell>
        <mxCell id="TzZJqTmakssSdBD6UN6_-131" value="&lt;font data-font-src=&quot;https://fonts.googleapis.com/css?family=Architects+Daughter&quot; face=&quot;Architects Daughter&quot; style=&quot;font-size: 20px;&quot;&gt;&lt;b style=&quot;font-size: 20px;&quot;&gt;&lt;i style=&quot;font-size: 20px;&quot;&gt;1 : 0..n&lt;/i&gt;&lt;/b&gt;&lt;/font&gt;" style="text;html=1;strokeColor=none;fillColor=none;align=center;verticalAlign=middle;whiteSpace=wrap;rounded=0;fontSize=20;movable=1;resizable=1;rotatable=1;deletable=1;editable=1;locked=0;connectable=1;" parent="TzZJqTmakssSdBD6UN6_-1" vertex="1">
          <mxGeometry x="220" y="477" width="60" height="30" as="geometry" />
        </mxCell>
        <mxCell id="TzZJqTmakssSdBD6UN6_-132" value="&lt;font data-font-src=&quot;https://fonts.googleapis.com/css?family=Architects+Daughter&quot; face=&quot;Architects Daughter&quot; style=&quot;font-size: 20px;&quot;&gt;&lt;b style=&quot;font-size: 20px;&quot;&gt;&lt;i style=&quot;font-size: 20px;&quot;&gt;1 : 0..n&lt;/i&gt;&lt;/b&gt;&lt;/font&gt;" style="text;html=1;strokeColor=none;fillColor=none;align=center;verticalAlign=middle;whiteSpace=wrap;rounded=0;fontSize=20;movable=1;resizable=1;rotatable=1;deletable=1;editable=1;locked=0;connectable=1;" parent="TzZJqTmakssSdBD6UN6_-1" vertex="1">
          <mxGeometry x="310" y="420" width="60" height="30" as="geometry" />
        </mxCell>
        <mxCell id="TzZJqTmakssSdBD6UN6_-133" value="&lt;font data-font-src=&quot;https://fonts.googleapis.com/css?family=Architects+Daughter&quot; face=&quot;Architects Daughter&quot; style=&quot;font-size: 20px;&quot;&gt;&lt;b style=&quot;font-size: 20px;&quot;&gt;&lt;i style=&quot;font-size: 20px;&quot;&gt;0..n&lt;/i&gt;&lt;/b&gt;&lt;/font&gt;" style="text;html=1;strokeColor=none;fillColor=none;align=center;verticalAlign=middle;whiteSpace=wrap;rounded=0;fontSize=20;movable=1;resizable=1;rotatable=1;deletable=1;editable=1;locked=0;connectable=1;" parent="TzZJqTmakssSdBD6UN6_-1" vertex="1">
          <mxGeometry x="431" y="565" width="60" height="30" as="geometry" />
        </mxCell>
        <mxCell id="TzZJqTmakssSdBD6UN6_-134" value="&lt;font data-font-src=&quot;https://fonts.googleapis.com/css?family=Architects+Daughter&quot; face=&quot;Architects Daughter&quot; style=&quot;font-size: 20px;&quot;&gt;&lt;b style=&quot;font-size: 20px;&quot;&gt;&lt;i style=&quot;font-size: 20px;&quot;&gt;0..n&lt;/i&gt;&lt;/b&gt;&lt;/font&gt;" style="text;html=1;strokeColor=none;fillColor=none;align=center;verticalAlign=middle;whiteSpace=wrap;rounded=0;fontSize=20;movable=1;resizable=1;rotatable=1;deletable=1;editable=1;locked=0;connectable=1;" parent="TzZJqTmakssSdBD6UN6_-1" vertex="1">
          <mxGeometry x="431" y="535" width="60" height="30" as="geometry" />
        </mxCell>
        <mxCell id="TzZJqTmakssSdBD6UN6_-135" value="&lt;font data-font-src=&quot;https://fonts.googleapis.com/css?family=Architects+Daughter&quot; face=&quot;Architects Daughter&quot; style=&quot;font-size: 20px;&quot;&gt;&lt;b style=&quot;font-size: 20px;&quot;&gt;&lt;i style=&quot;font-size: 20px;&quot;&gt;0..n&lt;/i&gt;&lt;/b&gt;&lt;/font&gt;" style="text;html=1;strokeColor=none;fillColor=none;align=center;verticalAlign=middle;whiteSpace=wrap;rounded=0;fontSize=20;movable=1;resizable=1;rotatable=1;deletable=1;editable=1;locked=0;connectable=1;" parent="TzZJqTmakssSdBD6UN6_-1" vertex="1">
          <mxGeometry x="299" y="155" width="60" height="30" as="geometry" />
        </mxCell>
        <mxCell id="TzZJqTmakssSdBD6UN6_-136" value="&lt;h1&gt;&lt;font style=&quot;font-size: 18px;&quot; data-font-src=&quot;https://fonts.googleapis.com/css?family=Architects+Daughter&quot; face=&quot;Architects Daughter&quot;&gt;3NF Normalization Stage&lt;/font&gt;&lt;/h1&gt;&lt;p style=&quot;line-height: 0%;&quot;&gt;&lt;font data-font-src=&quot;https://fonts.googleapis.com/css?family=Architects+Daughter&quot; face=&quot;Architects Daughter&quot;&gt;_______________________&lt;/font&gt;&lt;/p&gt;&lt;p&gt;&lt;font data-font-src=&quot;https://fonts.googleapis.com/css?family=Architects+Daughter&quot; face=&quot;Architects Daughter&quot;&gt;In 3NF there is no partial &quot;&lt;b&gt;&lt;i&gt;Transitive Dependency&lt;/i&gt;&lt;/b&gt;&quot; allowed in a table and also I added some attributes and tables to make it look more real.&lt;/font&gt;&lt;/p&gt;&lt;p&gt;&lt;font data-font-src=&quot;https://fonts.googleapis.com/css?family=Architects+Daughter&quot; face=&quot;Architects Daughter&quot;&gt;&lt;b&gt;NOTES:&lt;/b&gt;&lt;/font&gt;&lt;/p&gt;&lt;p&gt;&lt;font data-font-src=&quot;https://fonts.googleapis.com/css?family=Architects+Daughter&quot; face=&quot;Architects Daughter&quot;&gt;Mark (*), denote as an &lt;b&gt;ADDITIONAL ATTRIBUTE&lt;/b&gt;, and&lt;/font&gt;&lt;/p&gt;&lt;p&gt;&lt;font data-font-src=&quot;https://fonts.googleapis.com/css?family=Architects+Daughter&quot; face=&quot;Architects Daughter&quot;&gt;Mark (**), denote as an &lt;b&gt;ADDITIONAL TABLE&lt;/b&gt; due to scenario.&lt;/font&gt;&lt;/p&gt;" style="text;html=1;strokeColor=none;fillColor=none;spacing=5;spacingTop=-20;whiteSpace=wrap;overflow=hidden;rounded=0;movable=1;resizable=1;rotatable=1;deletable=1;editable=1;locked=0;connectable=1;" parent="TzZJqTmakssSdBD6UN6_-1" vertex="1">
          <mxGeometry x="70" y="24" width="200" height="300" as="geometry" />
        </mxCell>
        <mxCell id="TzZJqTmakssSdBD6UN6_-137" value="&lt;font style=&quot;font-size: 35px;&quot;&gt;&lt;b&gt;STUDENT&#39;s COURSE ERD TABLE - 3NF LEVEL&lt;/b&gt;&lt;/font&gt;" style="text;html=1;align=center;verticalAlign=middle;resizable=1;points=[];autosize=1;strokeColor=none;fillColor=none;fontFamily=Architects Daughter;fontSource=https%3A%2F%2Ffonts.googleapis.com%2Fcss%3Ffamily%3DArchitects%2BDaughter;movable=1;rotatable=1;deletable=1;editable=1;locked=0;connectable=1;" parent="TzZJqTmakssSdBD6UN6_-1" vertex="1">
          <mxGeometry x="220" y="30" width="790" height="60" as="geometry" />
        </mxCell>
        <mxCell id="TzZJqTmakssSdBD6UN6_-138" value="TrStudentCourse" style="shape=table;startSize=30;container=1;collapsible=0;childLayout=tableLayout;fixedRows=1;rowLines=0;fontStyle=1;strokeColor=#050505;fontSize=16;fillColor=#C7C7C7;shadow=1;rounded=1;swimlaneFillColor=#F0F0F0;swimlaneLine=1;sketch=1;curveFitting=1;jiggle=2;fillStyle=cross-hatch;fontFamily=Architects Daughter;verticalAlign=middle;labelBorderColor=default;labelBackgroundColor=none;fontSource=https%3A%2F%2Ffonts.googleapis.com%2Fcss%3Ffamily%3DArchitects%2BDaughter;" parent="TzZJqTmakssSdBD6UN6_-1" vertex="1">
          <mxGeometry x="491" y="460" width="280" height="270" as="geometry" />
        </mxCell>
        <mxCell id="TzZJqTmakssSdBD6UN6_-139" value="" style="shape=tableRow;horizontal=0;startSize=0;swimlaneHead=0;swimlaneBody=0;top=0;left=0;bottom=0;right=0;collapsible=0;dropTarget=0;fillColor=none;points=[[0,0.5],[1,0.5]];portConstraint=eastwest;strokeColor=inherit;fontSize=14;fontFamily=Architects Daughter;verticalAlign=middle;labelBorderColor=default;labelBackgroundColor=none;fontSource=https%3A%2F%2Ffonts.googleapis.com%2Fcss%3Ffamily%3DArchitects%2BDaughter;" parent="TzZJqTmakssSdBD6UN6_-138" vertex="1">
          <mxGeometry y="30" width="280" height="30" as="geometry" />
        </mxCell>
        <mxCell id="TzZJqTmakssSdBD6UN6_-140" value="PK" style="shape=partialRectangle;connectable=0;fillColor=none;top=0;left=0;bottom=0;right=0;overflow=hidden;pointerEvents=1;strokeColor=inherit;fontSize=14;fontFamily=Architects Daughter;verticalAlign=middle;labelBorderColor=default;labelBackgroundColor=none;fontStyle=1;fontSource=https%3A%2F%2Ffonts.googleapis.com%2Fcss%3Ffamily%3DArchitects%2BDaughter;" parent="TzZJqTmakssSdBD6UN6_-139" vertex="1">
          <mxGeometry width="47" height="30" as="geometry">
            <mxRectangle width="47" height="30" as="alternateBounds" />
          </mxGeometry>
        </mxCell>
        <mxCell id="TzZJqTmakssSdBD6UN6_-141" value="*Student_Course_No" style="shape=partialRectangle;connectable=0;fillColor=none;top=0;left=0;bottom=0;right=0;align=left;spacingLeft=6;overflow=hidden;strokeColor=inherit;fontSize=14;fontFamily=Architects Daughter;verticalAlign=middle;labelBorderColor=default;labelBackgroundColor=none;fontStyle=3;fontSource=https%3A%2F%2Ffonts.googleapis.com%2Fcss%3Ffamily%3DArchitects%2BDaughter;" parent="TzZJqTmakssSdBD6UN6_-139" vertex="1">
          <mxGeometry x="47" width="233" height="30" as="geometry">
            <mxRectangle width="233" height="30" as="alternateBounds" />
          </mxGeometry>
        </mxCell>
        <mxCell id="TzZJqTmakssSdBD6UN6_-142" value="" style="shape=tableRow;horizontal=0;startSize=0;swimlaneHead=0;swimlaneBody=0;top=0;left=0;bottom=0;right=0;collapsible=0;dropTarget=0;fillColor=none;points=[[0,0.5],[1,0.5]];portConstraint=eastwest;strokeColor=inherit;fontSize=14;fontFamily=Architects Daughter;verticalAlign=middle;labelBorderColor=default;labelBackgroundColor=none;fontSource=https%3A%2F%2Ffonts.googleapis.com%2Fcss%3Ffamily%3DArchitects%2BDaughter;" parent="TzZJqTmakssSdBD6UN6_-138" vertex="1">
          <mxGeometry y="60" width="280" height="30" as="geometry" />
        </mxCell>
        <mxCell id="TzZJqTmakssSdBD6UN6_-143" value="FK" style="shape=partialRectangle;connectable=0;fillColor=none;top=0;left=0;bottom=0;right=0;overflow=hidden;strokeColor=inherit;fontSize=14;fontFamily=Architects Daughter;verticalAlign=middle;labelBorderColor=default;labelBackgroundColor=none;fontSource=https%3A%2F%2Ffonts.googleapis.com%2Fcss%3Ffamily%3DArchitects%2BDaughter;fontStyle=1" parent="TzZJqTmakssSdBD6UN6_-142" vertex="1">
          <mxGeometry width="47" height="30" as="geometry">
            <mxRectangle width="47" height="30" as="alternateBounds" />
          </mxGeometry>
        </mxCell>
        <mxCell id="TzZJqTmakssSdBD6UN6_-144" value="Student_No" style="shape=partialRectangle;connectable=0;fillColor=none;top=0;left=0;bottom=0;right=0;align=left;spacingLeft=6;overflow=hidden;strokeColor=inherit;fontSize=14;fontFamily=Architects Daughter;verticalAlign=middle;labelBorderColor=default;labelBackgroundColor=none;fontSource=https%3A%2F%2Ffonts.googleapis.com%2Fcss%3Ffamily%3DArchitects%2BDaughter;fontStyle=1" parent="TzZJqTmakssSdBD6UN6_-142" vertex="1">
          <mxGeometry x="47" width="233" height="30" as="geometry">
            <mxRectangle width="233" height="30" as="alternateBounds" />
          </mxGeometry>
        </mxCell>
        <mxCell id="TzZJqTmakssSdBD6UN6_-145" value="" style="shape=tableRow;horizontal=0;startSize=0;swimlaneHead=0;swimlaneBody=0;top=0;left=0;bottom=0;right=0;collapsible=0;dropTarget=0;fillColor=none;points=[[0,0.5],[1,0.5]];portConstraint=eastwest;strokeColor=inherit;fontSize=14;fontFamily=Architects Daughter;verticalAlign=middle;labelBorderColor=default;labelBackgroundColor=none;fontSource=https%3A%2F%2Ffonts.googleapis.com%2Fcss%3Ffamily%3DArchitects%2BDaughter;" parent="TzZJqTmakssSdBD6UN6_-138" vertex="1">
          <mxGeometry y="90" width="280" height="30" as="geometry" />
        </mxCell>
        <mxCell id="TzZJqTmakssSdBD6UN6_-146" value="FK" style="shape=partialRectangle;connectable=0;fillColor=none;top=0;left=0;bottom=0;right=0;overflow=hidden;strokeColor=inherit;fontSize=14;fontFamily=Architects Daughter;verticalAlign=middle;labelBorderColor=default;labelBackgroundColor=none;fontSource=https%3A%2F%2Ffonts.googleapis.com%2Fcss%3Ffamily%3DArchitects%2BDaughter;fontStyle=1" parent="TzZJqTmakssSdBD6UN6_-145" vertex="1">
          <mxGeometry width="47" height="30" as="geometry">
            <mxRectangle width="47" height="30" as="alternateBounds" />
          </mxGeometry>
        </mxCell>
        <mxCell id="TzZJqTmakssSdBD6UN6_-147" value="Course_No" style="shape=partialRectangle;connectable=0;fillColor=none;top=0;left=0;bottom=0;right=0;align=left;spacingLeft=6;overflow=hidden;strokeColor=inherit;fontSize=14;fontFamily=Architects Daughter;verticalAlign=middle;labelBorderColor=default;labelBackgroundColor=none;fontSource=https%3A%2F%2Ffonts.googleapis.com%2Fcss%3Ffamily%3DArchitects%2BDaughter;fontStyle=1" parent="TzZJqTmakssSdBD6UN6_-145" vertex="1">
          <mxGeometry x="47" width="233" height="30" as="geometry">
            <mxRectangle width="233" height="30" as="alternateBounds" />
          </mxGeometry>
        </mxCell>
        <mxCell id="TzZJqTmakssSdBD6UN6_-148" value="" style="shape=tableRow;horizontal=0;startSize=0;swimlaneHead=0;swimlaneBody=0;top=0;left=0;bottom=0;right=0;collapsible=0;dropTarget=0;fillColor=none;points=[[0,0.5],[1,0.5]];portConstraint=eastwest;strokeColor=inherit;fontSize=14;fontFamily=Architects Daughter;verticalAlign=middle;labelBorderColor=default;labelBackgroundColor=none;fontSource=https%3A%2F%2Ffonts.googleapis.com%2Fcss%3Ffamily%3DArchitects%2BDaughter;" parent="TzZJqTmakssSdBD6UN6_-138" vertex="1">
          <mxGeometry y="120" width="280" height="30" as="geometry" />
        </mxCell>
        <mxCell id="TzZJqTmakssSdBD6UN6_-149" value="FK" style="shape=partialRectangle;connectable=0;fillColor=none;top=0;left=0;bottom=0;right=0;overflow=hidden;pointerEvents=1;strokeColor=inherit;fontSize=14;fontFamily=Architects Daughter;verticalAlign=middle;labelBorderColor=default;labelBackgroundColor=none;fontSource=https%3A%2F%2Ffonts.googleapis.com%2Fcss%3Ffamily%3DArchitects%2BDaughter;fontStyle=1" parent="TzZJqTmakssSdBD6UN6_-148" vertex="1">
          <mxGeometry width="47" height="30" as="geometry">
            <mxRectangle width="47" height="30" as="alternateBounds" />
          </mxGeometry>
        </mxCell>
        <mxCell id="TzZJqTmakssSdBD6UN6_-150" value="Instructor_No" style="shape=partialRectangle;connectable=0;fillColor=none;top=0;left=0;bottom=0;right=0;align=left;spacingLeft=6;overflow=hidden;strokeColor=inherit;fontSize=14;fontFamily=Architects Daughter;verticalAlign=middle;labelBorderColor=default;labelBackgroundColor=none;fontSource=https%3A%2F%2Ffonts.googleapis.com%2Fcss%3Ffamily%3DArchitects%2BDaughter;fontStyle=1" parent="TzZJqTmakssSdBD6UN6_-148" vertex="1">
          <mxGeometry x="47" width="233" height="30" as="geometry">
            <mxRectangle width="233" height="30" as="alternateBounds" />
          </mxGeometry>
        </mxCell>
        <mxCell id="TzZJqTmakssSdBD6UN6_-151" value="" style="shape=tableRow;horizontal=0;startSize=0;swimlaneHead=0;swimlaneBody=0;top=0;left=0;bottom=0;right=0;collapsible=0;dropTarget=0;fillColor=none;points=[[0,0.5],[1,0.5]];portConstraint=eastwest;strokeColor=inherit;fontSize=14;fontFamily=Architects Daughter;verticalAlign=middle;labelBorderColor=default;labelBackgroundColor=none;fontSource=https%3A%2F%2Ffonts.googleapis.com%2Fcss%3Ffamily%3DArchitects%2BDaughter;" parent="TzZJqTmakssSdBD6UN6_-138" vertex="1">
          <mxGeometry y="150" width="280" height="30" as="geometry" />
        </mxCell>
        <mxCell id="TzZJqTmakssSdBD6UN6_-152" value="" style="shape=partialRectangle;connectable=0;fillColor=none;top=0;left=0;bottom=0;right=0;overflow=hidden;strokeColor=inherit;fontSize=14;fontFamily=Architects Daughter;verticalAlign=middle;labelBorderColor=default;labelBackgroundColor=none;fontSource=https%3A%2F%2Ffonts.googleapis.com%2Fcss%3Ffamily%3DArchitects%2BDaughter;" parent="TzZJqTmakssSdBD6UN6_-151" vertex="1">
          <mxGeometry width="47" height="30" as="geometry">
            <mxRectangle width="47" height="30" as="alternateBounds" />
          </mxGeometry>
        </mxCell>
        <mxCell id="TzZJqTmakssSdBD6UN6_-153" value="*Student_Course_Semester" style="shape=partialRectangle;connectable=0;fillColor=none;top=0;left=0;bottom=0;right=0;align=left;spacingLeft=6;overflow=hidden;strokeColor=inherit;fontSize=14;fontFamily=Architects Daughter;verticalAlign=middle;labelBorderColor=default;labelBackgroundColor=none;fontSource=https%3A%2F%2Ffonts.googleapis.com%2Fcss%3Ffamily%3DArchitects%2BDaughter;" parent="TzZJqTmakssSdBD6UN6_-151" vertex="1">
          <mxGeometry x="47" width="233" height="30" as="geometry">
            <mxRectangle width="233" height="30" as="alternateBounds" />
          </mxGeometry>
        </mxCell>
        <mxCell id="TzZJqTmakssSdBD6UN6_-154" value="" style="shape=tableRow;horizontal=0;startSize=0;swimlaneHead=0;swimlaneBody=0;top=0;left=0;bottom=0;right=0;collapsible=0;dropTarget=0;fillColor=none;points=[[0,0.5],[1,0.5]];portConstraint=eastwest;strokeColor=inherit;fontSize=14;fontFamily=Architects Daughter;verticalAlign=middle;labelBorderColor=default;labelBackgroundColor=none;fontSource=https%3A%2F%2Ffonts.googleapis.com%2Fcss%3Ffamily%3DArchitects%2BDaughter;" parent="TzZJqTmakssSdBD6UN6_-138" vertex="1">
          <mxGeometry y="180" width="280" height="30" as="geometry" />
        </mxCell>
        <mxCell id="TzZJqTmakssSdBD6UN6_-155" value="" style="shape=partialRectangle;connectable=0;fillColor=none;top=0;left=0;bottom=0;right=0;overflow=hidden;strokeColor=inherit;fontSize=14;fontFamily=Architects Daughter;verticalAlign=middle;labelBorderColor=default;labelBackgroundColor=none;fontSource=https%3A%2F%2Ffonts.googleapis.com%2Fcss%3Ffamily%3DArchitects%2BDaughter;" parent="TzZJqTmakssSdBD6UN6_-154" vertex="1">
          <mxGeometry width="47" height="30" as="geometry">
            <mxRectangle width="47" height="30" as="alternateBounds" />
          </mxGeometry>
        </mxCell>
        <mxCell id="TzZJqTmakssSdBD6UN6_-156" value="*Student_Course_Datetime" style="shape=partialRectangle;connectable=0;fillColor=none;top=0;left=0;bottom=0;right=0;align=left;spacingLeft=6;overflow=hidden;strokeColor=inherit;fontSize=14;fontFamily=Architects Daughter;verticalAlign=middle;labelBorderColor=default;labelBackgroundColor=none;fontSource=https%3A%2F%2Ffonts.googleapis.com%2Fcss%3Ffamily%3DArchitects%2BDaughter;" parent="TzZJqTmakssSdBD6UN6_-154" vertex="1">
          <mxGeometry x="47" width="233" height="30" as="geometry">
            <mxRectangle width="233" height="30" as="alternateBounds" />
          </mxGeometry>
        </mxCell>
        <mxCell id="TzZJqTmakssSdBD6UN6_-157" value="" style="shape=tableRow;horizontal=0;startSize=0;swimlaneHead=0;swimlaneBody=0;top=0;left=0;bottom=0;right=0;collapsible=0;dropTarget=0;fillColor=none;points=[[0,0.5],[1,0.5]];portConstraint=eastwest;strokeColor=inherit;fontSize=14;fontFamily=Architects Daughter;verticalAlign=middle;labelBorderColor=default;labelBackgroundColor=none;fontSource=https%3A%2F%2Ffonts.googleapis.com%2Fcss%3Ffamily%3DArchitects%2BDaughter;" parent="TzZJqTmakssSdBD6UN6_-138" vertex="1">
          <mxGeometry y="210" width="280" height="30" as="geometry" />
        </mxCell>
        <mxCell id="TzZJqTmakssSdBD6UN6_-158" value="" style="shape=partialRectangle;connectable=0;fillColor=none;top=0;left=0;bottom=0;right=0;overflow=hidden;strokeColor=inherit;fontSize=14;fontFamily=Architects Daughter;verticalAlign=middle;labelBorderColor=default;labelBackgroundColor=none;fontSource=https%3A%2F%2Ffonts.googleapis.com%2Fcss%3Ffamily%3DArchitects%2BDaughter;" parent="TzZJqTmakssSdBD6UN6_-157" vertex="1">
          <mxGeometry width="47" height="30" as="geometry">
            <mxRectangle width="47" height="30" as="alternateBounds" />
          </mxGeometry>
        </mxCell>
        <mxCell id="TzZJqTmakssSdBD6UN6_-159" value="Student_Grade" style="shape=partialRectangle;connectable=0;fillColor=none;top=0;left=0;bottom=0;right=0;align=left;spacingLeft=6;overflow=hidden;strokeColor=inherit;fontSize=14;fontFamily=Architects Daughter;verticalAlign=middle;labelBorderColor=default;labelBackgroundColor=none;fontSource=https%3A%2F%2Ffonts.googleapis.com%2Fcss%3Ffamily%3DArchitects%2BDaughter;" parent="TzZJqTmakssSdBD6UN6_-157" vertex="1">
          <mxGeometry x="47" width="233" height="30" as="geometry">
            <mxRectangle width="233" height="30" as="alternateBounds" />
          </mxGeometry>
        </mxCell>
        <mxCell id="TzZJqTmakssSdBD6UN6_-160" value="" style="shape=tableRow;horizontal=0;startSize=0;swimlaneHead=0;swimlaneBody=0;top=0;left=0;bottom=0;right=0;collapsible=0;dropTarget=0;fillColor=none;points=[[0,0.5],[1,0.5]];portConstraint=eastwest;strokeColor=inherit;fontSize=14;fontFamily=Architects Daughter;verticalAlign=middle;labelBorderColor=default;labelBackgroundColor=none;fontSource=https%3A%2F%2Ffonts.googleapis.com%2Fcss%3Ffamily%3DArchitects%2BDaughter;" parent="TzZJqTmakssSdBD6UN6_-138" vertex="1">
          <mxGeometry y="240" width="280" height="30" as="geometry" />
        </mxCell>
        <mxCell id="TzZJqTmakssSdBD6UN6_-161" value="" style="shape=partialRectangle;connectable=0;fillColor=none;top=0;left=0;bottom=0;right=0;overflow=hidden;strokeColor=inherit;fontSize=14;fontFamily=Architects Daughter;verticalAlign=middle;labelBorderColor=default;labelBackgroundColor=none;fontSource=https%3A%2F%2Ffonts.googleapis.com%2Fcss%3Ffamily%3DArchitects%2BDaughter;" parent="TzZJqTmakssSdBD6UN6_-160" vertex="1">
          <mxGeometry width="47" height="30" as="geometry">
            <mxRectangle width="47" height="30" as="alternateBounds" />
          </mxGeometry>
        </mxCell>
        <mxCell id="TzZJqTmakssSdBD6UN6_-162" value="*Student_Course_Description" style="shape=partialRectangle;connectable=0;fillColor=none;top=0;left=0;bottom=0;right=0;align=left;spacingLeft=6;overflow=hidden;strokeColor=inherit;fontSize=14;fontFamily=Architects Daughter;verticalAlign=middle;labelBorderColor=default;labelBackgroundColor=none;fontSource=https%3A%2F%2Ffonts.googleapis.com%2Fcss%3Ffamily%3DArchitects%2BDaughter;" parent="TzZJqTmakssSdBD6UN6_-160" vertex="1">
          <mxGeometry x="47" width="233" height="30" as="geometry">
            <mxRectangle width="233" height="30" as="alternateBounds" />
          </mxGeometry>
        </mxCell>
        <mxCell id="TzZJqTmakssSdBD6UN6_-163" style="edgeStyle=orthogonalEdgeStyle;rounded=1;orthogonalLoop=1;jettySize=auto;html=1;entryX=0;entryY=0.5;entryDx=0;entryDy=0;endArrow=ERzeroToMany;shadow=1;startSize=11;endSize=11;endFill=0;jumpStyle=line;jumpSize=11;exitX=0;exitY=0.5;exitDx=0;exitDy=0;movable=1;resizable=1;rotatable=1;deletable=1;editable=1;locked=0;connectable=1;startArrow=ERzeroToOne;startFill=0;" parent="TzZJqTmakssSdBD6UN6_-1" source="TzZJqTmakssSdBD6UN6_-32" target="TzZJqTmakssSdBD6UN6_-142" edge="1">
          <mxGeometry relative="1" as="geometry">
            <Array as="points">
              <mxPoint x="720" y="155" />
              <mxPoint x="720" y="400" />
              <mxPoint x="450" y="400" />
              <mxPoint x="450" y="535" />
            </Array>
            <mxPoint x="490" y="505" as="targetPoint" />
          </mxGeometry>
        </mxCell>
        <mxCell id="TzZJqTmakssSdBD6UN6_-164" style="edgeStyle=orthogonalEdgeStyle;rounded=1;orthogonalLoop=1;jettySize=auto;html=1;entryX=0;entryY=0.5;entryDx=0;entryDy=0;exitX=0;exitY=0.5;exitDx=0;exitDy=0;endArrow=ERzeroToMany;shadow=1;startSize=11;endSize=11;endFill=0;jumpStyle=line;jumpSize=11;startArrow=ERone;startFill=0;movable=1;resizable=1;rotatable=1;deletable=1;editable=1;locked=0;connectable=1;" parent="TzZJqTmakssSdBD6UN6_-1" source="TzZJqTmakssSdBD6UN6_-88" target="TzZJqTmakssSdBD6UN6_-145" edge="1">
          <mxGeometry relative="1" as="geometry">
            <Array as="points">
              <mxPoint x="90" y="555" />
              <mxPoint x="90" y="470" />
              <mxPoint x="430" y="470" />
              <mxPoint x="430" y="565" />
            </Array>
            <mxPoint x="490" y="535" as="targetPoint" />
          </mxGeometry>
        </mxCell>
        <mxCell id="TzZJqTmakssSdBD6UN6_-165" value="&lt;font data-font-src=&quot;https://fonts.googleapis.com/css?family=Architects+Daughter&quot; face=&quot;Architects Daughter&quot; style=&quot;font-size: 20px;&quot;&gt;&lt;b style=&quot;font-size: 20px;&quot;&gt;&lt;i style=&quot;font-size: 20px;&quot;&gt;0..n&lt;/i&gt;&lt;/b&gt;&lt;/font&gt;" style="text;html=1;strokeColor=none;fillColor=none;align=center;verticalAlign=middle;whiteSpace=wrap;rounded=0;fontSize=20;movable=1;resizable=1;rotatable=1;deletable=1;editable=1;locked=0;connectable=1;" parent="TzZJqTmakssSdBD6UN6_-1" vertex="1">
          <mxGeometry x="440" y="505" width="60" height="30" as="geometry" />
        </mxCell>
        <mxCell id="TzZJqTmakssSdBD6UN6_-166" value="&lt;b style=&quot;&quot;&gt;&lt;font style=&quot;font-size: 24px;&quot;&gt;vers. 1.2&lt;/font&gt;&lt;/b&gt;" style="text;html=1;align=center;verticalAlign=middle;resizable=1;points=[];autosize=1;strokeColor=none;fillColor=none;fontFamily=Architects Daughter;fontSource=https%3A%2F%2Ffonts.googleapis.com%2Fcss%3Ffamily%3DArchitects%2BDaughter;movable=1;rotatable=1;deletable=1;editable=1;locked=0;connectable=1;" parent="TzZJqTmakssSdBD6UN6_-1" vertex="1">
          <mxGeometry x="645" y="90" width="110" height="40" as="geometry" />
        </mxCell>
      </root>
    </mxGraphModel>
  </diagram>
</mxfile>
